<svg width="36" height="36" viewBox="0 0 36 36" fill="none" xmlns="http://www.w3.org/2000/svg">
<g clip-path="url(#clip0_168_396)">
<path d="M13.29 25.75C13.28 25.64 13.22 25.53 13.14 25.45L11.71 24.02C11.63 23.94 11.52 23.89 11.41 23.87C10.76 23.79 10.11 24.02 9.65001 24.48L9.57001 24.57C9.57001 24.57 9.52001 24.63 9.51001 24.64L9.44001 24.74C9.44001 24.74 9.39001 24.82 9.37001 24.85C8.62001 26 8.49001 28.06 8.49001 28.15C8.49001 28.29 8.54001 28.44 8.64001 28.54C8.74001 28.64 8.87001 28.69 9.00001 28.69C9.00001 28.69 9.02001 28.69 9.03001 28.69C9.12001 28.69 11.18 28.56 12.31 27.82C12.35 27.79 12.4 27.76 12.47 27.71C12.51 27.68 12.54 27.66 12.56 27.64C12.61 27.6 12.65 27.56 12.69 27.52C13.15 27.06 13.38 26.41 13.3 25.76L13.29 25.75Z" fill="#5D8FFF"/>
<path d="M32.98 4.19003C32.84 4.05003 32.64 3.98003 32.45 4.01003L22.99 5.20003C22.84 5.22003 22.7 5.29003 22.6 5.40003L15.63 13.1L8.24 14.84C8.13 14.87 8.02 14.93 7.94 15.01L4.19 18.77C4.01 18.95 3.95 19.24 4.06 19.47C4.16 19.7 4.39 19.85 4.64 19.85L9.75 19.61L9.28 20.13C8.88 20.53 8.64 21.06 8.62 21.61C8.6 22.18 8.8 22.71 9.19 23.1L9.32 23.23C8.72 23.4 8.16 23.71 7.7 24.17C7.63 24.24 7.57 24.31 7.51 24.38C7.47 24.43 7.43 24.48 7.36 24.56L7.33 24.6C7.28 24.67 7.23 24.75 7.18 24.81C5.82 26.87 5.58 30.53 5.56 30.94C5.56 31.12 5.62 31.3 5.75 31.42C5.87 31.54 6.03 31.61 6.2 31.61H6.23C6.39 31.61 10.25 31.38 12.35 29.99C12.42 29.95 12.49 29.9 12.56 29.85L12.58 29.84L12.61 29.82C12.61 29.82 12.62 29.82 12.63 29.81L12.65 29.79C12.7 29.75 12.75 29.71 12.78 29.68C12.86 29.61 12.94 29.54 13.01 29.47C13.47 29.01 13.77 28.45 13.95 27.85L14.08 27.98C14.45 28.35 14.95 28.55 15.48 28.55C16.05 28.55 16.63 28.31 17.02 27.91L17.57 27.42L17.34 32.51C17.33 32.77 17.48 33.01 17.72 33.12C17.8 33.16 17.89 33.17 17.98 33.17C18.15 33.17 18.31 33.1 18.43 32.98L22.19 29.22C22.27 29.14 22.33 29.03 22.36 28.92L24.11 21.51L31.79 14.56C31.9 14.46 31.98 14.32 31.99 14.17L33.18 4.71003C33.2 4.52003 33.14 4.32003 33 4.18003L32.98 4.19003ZM12.82 26.75C12.84 27.44 12.58 28.09 12.09 28.58C12.05 28.62 12 28.66 11.94 28.72C11.92 28.74 11.9 28.76 11.85 28.79L11.8 28.83C11.8 28.83 11.71 28.89 11.65 28.93C10.31 29.81 7.97 30.16 6.88 30.28C7 29.19 7.35 26.85 8.24 25.5C8.27 25.45 8.31 25.39 8.35 25.34C8.35 25.34 8.35 25.33 8.36 25.32L8.39 25.29C8.39 25.29 8.43 25.24 8.46 25.21C8.5 25.16 8.55 25.11 8.59 25.07C9.07 24.59 9.73 24.33 10.42 24.35L12.82 26.75ZM22.43 23.02L21.15 28.46L18.67 30.94L18.88 26.23L22.43 23.02ZM16.14 27.01C15.96 27.19 15.72 27.29 15.47 27.29C15.27 27.29 15.09 27.22 14.97 27.1L13.9 26.03L11.16 23.3L10.08 22.22C9.94 22.08 9.87 21.89 9.88 21.68C9.88 21.44 10 21.22 10.19 21.02L23.38 6.43003L31.8 5.37003L30.74 13.79L16.14 27.01ZM10.94 18.29L6.24 18.51L8.71 16.04L14.13 14.76L10.93 18.29H10.94Z" fill="black"/>
<path d="M14.09 19.48C13.97 19.36 13.81 19.29 13.64 19.29C13.47 19.29 13.31 19.36 13.19 19.48C13.07 19.6 13 19.76 13 19.93C13 20.1 13.07 20.26 13.19 20.38L16.79 23.98C16.91 24.1 17.07 24.17 17.24 24.17C17.41 24.17 17.57 24.1 17.69 23.98C17.81 23.86 17.88 23.7 17.88 23.53C17.88 23.36 17.81 23.2 17.69 23.08L14.09 19.48Z" fill="black"/>
<path d="M15.67 17.9C15.42 17.65 15.02 17.65 14.77 17.9C14.65 18.02 14.58 18.18 14.58 18.35C14.58 18.52 14.65 18.68 14.77 18.8L18.37 22.4C18.49 22.52 18.65 22.59 18.82 22.59C18.99 22.59 19.15 22.52 19.27 22.4C19.39 22.28 19.46 22.12 19.46 21.95C19.46 21.78 19.39 21.62 19.27 21.5L15.67 17.9Z" fill="black"/>
<path d="M24.46 15.7699C26.139 15.7699 27.5 14.4089 27.5 12.7299C27.5 11.051 26.139 9.68994 24.46 9.68994C22.7811 9.68994 21.42 11.051 21.42 12.7299C21.42 14.4089 22.7811 15.7699 24.46 15.7699Z" fill="#5D8FFF"/>
</g>
<defs>
<clipPath id="clip0_168_396">
<rect width="29.17" height="29.18" fill="white" transform="translate(4 4)"/>
</clipPath>
</defs>
</svg>
