<svg width="20" height="20" viewBox="0 0 20 20" fill="none" xmlns="http://www.w3.org/2000/svg">
<g id="Prepend Icon">
<path id="Symbol" fill-rule="evenodd" clip-rule="evenodd" d="M10 2C10.6976 2 11.2632 2.56554 11.2632 3.26316V8.73684H16.7368C17.4345 8.73684 18 9.30238 18 10C18 10.6976 17.4345 11.2632 16.7368 11.2632H11.2632V16.7368C11.2632 17.4345 10.6976 18 10 18C9.30238 18 8.73684 17.4345 8.73684 16.7368V11.2632H3.26316C2.56554 11.2632 2 10.6976 2 10C2 9.30238 2.56554 8.73684 3.26316 8.73684H8.73684V3.26316C8.73684 2.56554 9.30238 2 10 2Z" fill="white"/>
</g>
</svg>
