<svg width="16" height="16" viewBox="0 0 16 16" fill="none" xmlns="http://www.w3.org/2000/svg">
<path d="M4.4801 8.0001C4.30337 8.0001 4.1601 8.14337 4.1601 8.3201V8.9601C4.1601 9.13683 4.30337 9.2801 4.4801 9.2801H5.7601C5.93683 9.2801 6.0801 9.13683 6.0801 8.9601V8.3201C6.0801 8.14337 5.93683 8.0001 5.7601 8.0001H4.4801Z" fill="#191919"/>
<path d="M4.1601 10.8801C4.1601 10.7034 4.30337 10.5601 4.4801 10.5601H5.7601C5.93683 10.5601 6.0801 10.7034 6.0801 10.8801V11.5201C6.0801 11.6968 5.93683 11.8401 5.7601 11.8401H4.4801C4.30337 11.8401 4.1601 11.6968 4.1601 11.5201V10.8801Z" fill="#191919"/>
<path d="M10.2401 8.0001C10.0634 8.0001 9.9201 8.14337 9.9201 8.3201V8.9601C9.9201 9.13683 10.0634 9.2801 10.2401 9.2801H11.5201C11.6968 9.2801 11.8401 9.13683 11.8401 8.9601V8.3201C11.8401 8.14337 11.6968 8.0001 11.5201 8.0001H10.2401Z" fill="#191919"/>
<path d="M7.3601 8.3201C7.3601 8.14337 7.50337 8.0001 7.6801 8.0001H8.3201C8.49683 8.0001 8.6401 8.14337 8.6401 8.3201V8.9601C8.6401 9.13683 8.49683 9.2801 8.3201 9.2801H7.6801C7.50337 9.2801 7.3601 9.13683 7.3601 8.9601V8.3201Z" fill="#191919"/>
<path d="M7.6801 10.5601C7.50337 10.5601 7.3601 10.7034 7.3601 10.8801V11.5201C7.3601 11.6968 7.50337 11.8401 7.6801 11.8401H8.3201C8.49683 11.8401 8.6401 11.6968 8.6401 11.5201V10.8801C8.6401 10.7034 8.49683 10.5601 8.3201 10.5601H7.6801Z" fill="#191919"/>
<path fill-rule="evenodd" clip-rule="evenodd" d="M3.5201 2.5601C3.5201 2.02994 3.94994 1.6001 4.4801 1.6001C5.01025 1.6001 5.4401 2.02994 5.4401 2.5601V2.8801H10.5601V2.5601C10.5601 2.02994 10.9899 1.6001 11.5201 1.6001C12.0503 1.6001 12.4801 2.02994 12.4801 2.5601V2.8801H13.1201C13.827 2.8801 14.4001 3.45314 14.4001 4.1601V13.1201C14.4001 13.8271 13.827 14.4001 13.1201 14.4001H2.8801C2.17322 14.4001 1.6001 13.8271 1.6001 13.1201V4.1601C1.6001 3.45314 2.17322 2.8801 2.8801 2.8801H3.5201V2.5601ZM2.8801 6.7201H13.1201V11.8401C13.1201 12.547 12.547 13.1201 11.8401 13.1201H4.1601C3.45317 13.1201 2.8801 12.547 2.8801 11.8401V6.7201Z" fill="#191919"/>
</svg>
