<svg width="16" height="16" viewBox="0 0 16 16" fill="none" xmlns="http://www.w3.org/2000/svg">
<path fill-rule="evenodd" clip-rule="evenodd" d="M7.64781 1.74784C7.74095 1.65328 7.86901 1.6001 7.99707 1.6001C8.12512 1.6001 8.25319 1.65328 8.34632 1.74784L14.2545 7.7519C14.301 7.79917 14.3359 7.85236 14.3651 7.91145C14.3883 7.97055 14.4 8.03555 14.4 8.10647V13.9096C14.4 13.9746 14.3883 14.0396 14.3651 14.0987C14.3418 14.1578 14.301 14.2169 14.2603 14.2583C14.2137 14.3055 14.1613 14.341 14.0973 14.3646C14.0391 14.3883 13.9751 14.4001 13.911 14.4001H9.48138V10.8898C9.48138 10.4939 9.32421 10.1098 9.05063 9.82614C8.77124 9.54248 8.3987 9.38883 8.00288 9.38883C7.60707 9.38883 7.23454 9.54839 6.95514 9.82614C6.67574 10.1098 6.5244 10.488 6.5244 10.8898V14.3883H2.09475C1.96669 14.3883 1.84446 14.341 1.75132 14.2464C1.65819 14.1578 1.6058 14.0337 1.59998 13.9037V8.11829C1.59998 8.05328 1.61162 7.98828 1.63491 7.92327C1.65819 7.86418 1.69893 7.80508 1.7455 7.76372L7.64781 1.74784Z" fill="#191919"/>
<rect x="4" y="8" width="8" height="6.4" fill="#191919"/>
</svg>
