<svg width="251" height="123" viewBox="0 0 251 123" fill="none" xmlns="http://www.w3.org/2000/svg">
<g clip-path="url(#clip0_180_9375)">
<rect width="122" height="250" transform="translate(0.5 122.5) rotate(-90)" fill="#212121"/>
<g clip-path="url(#clip1_180_9375)">
<path d="M224.5 49.5L233.743 63.0126L248.506 55.9298L249.739 72.2609L266.07 73.4944L258.987 88.2572L272.5 97.5L258.987 106.743L266.07 121.506L249.739 122.739L248.506 139.07L233.743 131.987L224.5 145.5L215.257 131.987L200.494 139.07L199.261 122.739L182.93 121.506L190.013 106.743L176.5 97.5L190.013 88.2572L182.93 73.4944L199.261 72.2609L200.494 55.9298L215.257 63.0126L224.5 49.5Z" fill="#F0F81C"/>
<path d="M218.729 110.013C218.729 108.281 215.57 106.877 211.674 106.877C207.778 106.877 204.619 108.281 204.619 110.013C204.619 111.746 207.778 113.15 211.674 113.15C215.57 113.15 218.729 111.746 218.729 110.013Z" fill="#040000"/>
<path d="M218.729 84.9028C218.729 83.1704 215.57 81.7661 211.674 81.7661C207.778 81.7661 204.619 83.1704 204.619 84.9028C204.619 86.6352 207.778 88.0396 211.674 88.0396C215.57 88.0396 218.729 86.6352 218.729 84.9028Z" fill="#040000"/>
<path d="M245.57 97.4666C245.57 105.922 239.57 113.318 231.304 115.042C230.656 115.176 230.02 114.763 229.886 114.116C229.752 113.468 230.165 112.832 230.813 112.698C237.974 111.202 243.17 104.795 243.17 97.4722C243.17 90.1494 237.923 83.6694 230.69 82.2182C230.042 82.0899 229.618 81.4536 229.747 80.8061C229.875 80.1587 230.511 79.7345 231.159 79.8685C239.508 81.5429 245.564 88.9494 245.564 97.4722L245.57 97.4666Z" fill="#040000"/>
<path d="M232.867 116.371C232.867 116.912 232.498 117.403 231.946 117.537C231.304 117.694 230.651 117.297 230.495 116.65L229.328 111.833C229.172 111.191 229.568 110.538 230.21 110.387C230.852 110.231 231.505 110.627 231.661 111.275L232.828 116.092C232.85 116.187 232.861 116.281 232.861 116.376L232.867 116.371Z" fill="#040000"/>
<path d="M232.71 78.6294C232.71 78.7243 232.699 78.8192 232.677 78.914L231.51 83.7308C231.354 84.3727 230.706 84.7689 230.059 84.6127C229.417 84.4564 229.021 83.8089 229.177 83.1671L230.344 78.3503C230.5 77.7085 231.147 77.3122 231.795 77.4685C232.342 77.6024 232.716 78.0936 232.716 78.635L232.71 78.6294Z" fill="#040000"/>
</g>
<path d="M19.67 19.3L19.67 37.78L28.67 37.78L28.67 41.5L15.23 41.5L15.23 19.3L19.67 19.3ZM39.4745 41.92C38.3145 41.92 37.2245 41.72 36.2045 41.32C35.1845 40.92 34.2945 40.35 33.5345 39.61C32.7945 38.85 32.2045 37.93 31.7645 36.85C31.3445 35.75 31.1345 34.51 31.1345 33.13C31.1345 31.77 31.3545 30.55 31.7945 29.47C32.2345 28.37 32.8145 27.44 33.5345 26.68C34.2745 25.9 35.1145 25.31 36.0545 24.91C36.9945 24.49 37.9645 24.28 38.9645 24.28C40.1245 24.28 41.1345 24.48 41.9945 24.88C42.8745 25.28 43.6045 25.84 44.1845 26.56C44.7845 27.28 45.2345 28.13 45.5345 29.11C45.8345 30.09 45.9845 31.16 45.9845 32.32C45.9845 32.72 45.9645 33.11 45.9245 33.49C45.8845 33.85 45.8345 34.13 45.7745 34.33L35.4245 34.33C35.6045 35.71 36.1045 36.76 36.9245 37.48C37.7645 38.18 38.8145 38.53 40.0745 38.53C40.7745 38.53 41.4245 38.43 42.0245 38.23C42.6445 38.03 43.2545 37.74 43.8545 37.36L45.3545 40.06C44.5145 40.64 43.5945 41.1 42.5945 41.44C41.5945 41.76 40.5545 41.92 39.4745 41.92ZM42.2045 31.42C42.2045 30.28 41.9445 29.38 41.4245 28.72C40.9045 28.04 40.1045 27.7 39.0245 27.7C38.1445 27.7 37.3545 28.02 36.6545 28.66C35.9545 29.28 35.5245 30.2 35.3645 31.42L42.2045 31.42ZM55.7661 41.92C54.7661 41.92 53.9161 41.77 53.2161 41.47C52.5161 41.17 51.9461 40.75 51.5061 40.21C51.0661 39.65 50.7461 38.98 50.5461 38.2C50.3461 37.42 50.2461 36.56 50.2461 35.62L50.2461 28.18L47.8761 28.18L47.8761 24.91L50.4561 24.7L50.9661 20.2L54.6561 20.2L54.6561 24.7L58.7961 24.7L58.7961 28.18L54.6561 28.18L54.6561 35.62C54.6561 37.5 55.4161 38.44 56.9361 38.44C57.2161 38.44 57.5061 38.41 57.8061 38.35C58.1061 38.27 58.3661 38.18 58.5861 38.08L59.3061 41.29C58.8461 41.45 58.3261 41.59 57.7461 41.71C57.1661 41.85 56.5061 41.92 55.7661 41.92ZM62.4537 18.1L66.9538 18.1L66.8037 22.27L65.9337 28.72L63.4737 28.72L62.6037 22.27L62.4537 18.1ZM76.0665 41.92C74.9265 41.92 73.7865 41.7 72.6465 41.26C71.5065 40.82 70.5165 40.25 69.6765 39.55L71.6865 36.79C72.4465 37.37 73.1865 37.82 73.9065 38.14C74.6465 38.46 75.4065 38.62 76.1865 38.62C77.0265 38.62 77.6365 38.46 78.0165 38.14C78.4165 37.8 78.6165 37.37 78.6165 36.85C78.6165 36.53 78.5165 36.26 78.3165 36.04C78.1165 35.8 77.8465 35.59 77.5065 35.41C77.1865 35.21 76.8165 35.03 76.3965 34.87C75.9765 34.69 75.5465 34.51 75.1065 34.33C74.5665 34.13 74.0265 33.9 73.4865 33.64C72.9465 33.36 72.4565 33.03 72.0165 32.65C71.5765 32.25 71.2165 31.79 70.9365 31.27C70.6565 30.75 70.5165 30.14 70.5165 29.44C70.5165 28.68 70.6665 27.99 70.9665 27.37C71.2665 26.73 71.6865 26.18 72.2265 25.72C72.7665 25.26 73.4165 24.91 74.1765 24.67C74.9565 24.41 75.8165 24.28 76.7565 24.28C78.0165 24.28 79.1065 24.5 80.0265 24.94C80.9665 25.36 81.7865 25.83 82.4865 26.35L80.5065 29.02C79.9065 28.6 79.3065 28.26 78.7065 28C78.1265 27.72 77.5165 27.58 76.8765 27.58C76.1165 27.58 75.5565 27.73 75.1965 28.03C74.8365 28.33 74.6565 28.72 74.6565 29.2C74.6565 29.5 74.7465 29.76 74.9265 29.98C75.1265 30.2 75.3865 30.4 75.7065 30.58C76.0265 30.76 76.3865 30.93 76.7865 31.09C77.2065 31.23 77.6365 31.38 78.0765 31.54C78.6365 31.76 79.1865 32 79.7265 32.26C80.2865 32.52 80.7865 32.84 81.2265 33.22C81.6865 33.6 82.0565 34.07 82.3365 34.63C82.6165 35.17 82.7565 35.83 82.7565 36.61C82.7565 37.35 82.6065 38.04 82.3065 38.68C82.0265 39.32 81.6065 39.88 81.0465 40.36C80.4865 40.84 79.7865 41.22 78.9465 41.5C78.1265 41.78 77.1665 41.92 76.0665 41.92ZM97.2969 17.56L97.2969 23.59L97.1169 26.74C97.7969 26.1 98.5569 25.53 99.3969 25.03C100.257 24.53 101.257 24.28 102.397 24.28C104.217 24.28 105.537 24.88 106.357 26.08C107.177 27.26 107.587 28.91 107.587 31.03L107.587 41.5L103.177 41.5L103.177 31.57C103.177 30.27 102.987 29.36 102.607 28.84C102.247 28.32 101.647 28.06 100.807 28.06C100.107 28.06 99.5069 28.22 99.0069 28.54C98.5069 28.86 97.9369 29.33 97.2969 29.95L97.2969 41.5L92.9169 41.5L92.9169 17.56L97.2969 17.56ZM116.246 41.8C115.506 41.8 114.826 41.69 114.206 41.47C113.586 41.23 113.056 40.9 112.616 40.48C112.196 40.04 111.866 39.52 111.626 38.92C111.386 38.32 111.266 37.66 111.266 36.94C111.166 34.88 111.876 33.36 113.396 32.38C114.936 31.38 117.446 30.83 120.926 30.73C121.006 30.03 120.876 29.32 120.536 28.6C120.176 28.08 119.356 27.82 118.076 27.82C117.296 27.82 116.476 27.96 115.616 28.24C114.776 28.52 113.976 28.91 113.216 29.41L111.896 26.26C112.816 25.7 113.876 25.23 115.076 24.85C116.296 24.47 117.566 24.28 118.886 24.28C123.186 24.28 125.336 26.75 125.336 31.69L125.336 41.5L121.736 41.5L121.406 39.79L121.316 39.79C120.596 40.41 119.806 40.9 118.946 41.26C118.106 41.62 117.206 41.8 116.246 41.8ZM117.596 38.44C118.236 38.42 118.816 38.28 119.336 38.02C119.876 37.74 120.406 37.34 120.926 36.82L120.926 33.43C120.406 33.47 119.886 33.52 119.366 33.58C118.866 33.62 118.376 33.68 117.896 33.76C116.936 33.9 116.256 34.19 115.856 34.63C115.476 35.07 115.296 35.59 115.316 36.19C115.336 36.89 115.556 37.44 115.976 37.84C116.416 38.24 116.956 38.44 117.596 38.44ZM132.321 24.7L134.781 33.07C135.001 33.91 135.221 34.76 135.441 35.62C135.681 36.46 135.911 37.31 136.131 38.17L136.281 38.17C136.501 37.31 136.721 36.46 136.941 35.62C137.181 34.76 137.411 33.91 137.631 33.07L140.091 24.7L144.321 24.7L138.711 41.5L133.611 41.5L127.881 24.7L132.321 24.7ZM154.406 41.92C153.246 41.92 152.156 41.72 151.136 41.32C150.116 40.92 149.226 40.35 148.466 39.61C147.726 38.85 147.136 37.93 146.696 36.85C146.276 35.75 146.066 34.51 146.066 33.13C146.066 31.77 146.286 30.55 146.726 29.47C147.166 28.37 147.746 27.44 148.466 26.68C149.206 25.9 150.046 25.31 150.986 24.91C151.926 24.49 152.896 24.28 153.896 24.28C155.056 24.28 156.066 24.48 156.926 24.88C157.806 25.28 158.536 25.84 159.116 26.56C159.716 27.28 160.166 28.13 160.466 29.11C160.766 30.09 160.916 31.16 160.916 32.32C160.916 32.72 160.896 33.11 160.856 33.49C160.816 33.85 160.766 34.13 160.706 34.33L150.356 34.33C150.536 35.71 151.036 36.76 151.856 37.48C152.696 38.18 153.746 38.53 155.006 38.53C155.706 38.53 156.356 38.43 156.956 38.23C157.576 38.03 158.186 37.74 158.786 37.36L160.286 40.06C159.446 40.64 158.526 41.1 157.526 41.44C156.526 41.76 155.486 41.92 154.406 41.92ZM157.136 31.42C157.136 30.28 156.876 29.38 156.356 28.72C155.836 28.04 155.036 27.7 153.956 27.7C153.076 27.7 152.286 28.02 151.586 28.66C150.886 29.28 150.456 30.2 150.296 31.42L157.136 31.42ZM180.315 20.98C180.035 20.88 179.735 20.8 179.415 20.74C179.115 20.66 178.825 20.62 178.545 20.62C177.885 20.62 177.375 20.82 177.015 21.22C176.675 21.62 176.505 22.3 176.505 23.26L176.505 24.7L179.655 24.7L179.655 28.18L176.505 28.18L176.505 41.5L172.095 41.5L172.095 28.18L169.845 28.18L169.845 24.91L172.095 24.73L172.095 23.35C172.095 22.47 172.195 21.65 172.395 20.89C172.615 20.13 172.955 19.48 173.415 18.94C173.895 18.38 174.505 17.94 175.245 17.62C175.985 17.3 176.885 17.14 177.945 17.14C178.585 17.14 179.175 17.2 179.715 17.32C180.275 17.44 180.745 17.58 181.125 17.74L180.315 20.98ZM187.487 41.92C185.687 41.92 184.377 41.33 183.557 40.15C182.737 38.95 182.327 37.3 182.327 35.2L182.327 24.7L186.737 24.7L186.737 34.63C186.737 35.95 186.917 36.87 187.277 37.39C187.637 37.89 188.237 38.14 189.077 38.14C189.777 38.14 190.377 37.98 190.877 37.66C191.377 37.34 191.917 36.8 192.497 36.04L192.497 24.7L196.907 24.7L196.907 41.5L193.307 41.5L192.977 39.1L192.857 39.1C192.137 39.96 191.347 40.65 190.487 41.17C189.647 41.67 188.647 41.92 187.487 41.92ZM205.208 24.7L205.508 26.92L205.628 26.92C206.368 26.2 207.178 25.58 208.058 25.06C208.938 24.54 209.948 24.28 211.088 24.28C212.908 24.28 214.228 24.88 215.048 26.08C215.868 27.26 216.278 28.91 216.278 31.03L216.278 41.5L211.868 41.5L211.868 31.57C211.868 30.27 211.678 29.36 211.298 28.84C210.938 28.32 210.338 28.06 209.498 28.06C208.798 28.06 208.198 28.22 207.698 28.54C207.198 28.86 206.628 29.33 205.988 29.95L205.988 41.5L201.608 41.5L201.608 24.7L205.208 24.7ZM17.72 60.7L19.55 69.01C19.71 69.85 19.85 70.67 19.97 71.47C20.09 72.25 20.23 73.06 20.39 73.9L20.51 73.9C20.67 73.06 20.83 72.24 20.99 71.44C21.15 70.62 21.34 69.81 21.56 69.01L23.57 60.7L27.5 60.7L29.6 69.01C29.8 69.85 29.98 70.67 30.14 71.47C30.3 72.25 30.47 73.06 30.65 73.9L30.8 73.9C30.96 73.06 31.1 72.25 31.22 71.47C31.34 70.67 31.48 69.85 31.64 69.01L33.47 60.7L37.55 60.7L33.41 77.5L28.22 77.5L26.45 70.18C26.27 69.38 26.1 68.59 25.94 67.81C25.8 67.03 25.65 66.19 25.49 65.29L25.34 65.29C25.18 66.19 25.03 67.04 24.89 67.84C24.75 68.62 24.59 69.4 24.41 70.18L22.7 77.5L17.66 77.5L13.31 60.7L17.72 60.7ZM47.7884 77.92C46.7484 77.92 45.7384 77.72 44.7584 77.32C43.7784 76.92 42.9184 76.35 42.1784 75.61C41.4384 74.85 40.8384 73.93 40.3784 72.85C39.9384 71.75 39.7184 70.51 39.7184 69.13C39.7184 67.73 39.9384 66.48 40.3784 65.38C40.8384 64.28 41.4384 63.36 42.1784 62.62C42.9184 61.86 43.7784 61.28 44.7584 60.88C45.7384 60.48 46.7484 60.28 47.7884 60.28C48.8484 60.28 49.8584 60.48 50.8184 60.88C51.7984 61.28 52.6584 61.86 53.3984 62.62C54.1384 63.36 54.7284 64.28 55.1684 65.38C55.6284 66.48 55.8584 67.73 55.8584 69.13C55.8584 70.51 55.6284 71.75 55.1684 72.85C54.7284 73.93 54.1384 74.85 53.3984 75.61C52.6584 76.35 51.7984 76.92 50.8184 77.32C49.8584 77.72 48.8484 77.92 47.7884 77.92ZM47.7884 74.32C48.9284 74.32 49.8084 73.85 50.4284 72.91C51.0484 71.97 51.3584 70.71 51.3584 69.13C51.3584 67.51 51.0484 66.23 50.4284 65.29C49.8084 64.35 48.9284 63.88 47.7884 63.88C46.6484 63.88 45.7684 64.35 45.1484 65.29C44.5284 66.23 44.2184 67.51 44.2184 69.13C44.2184 70.71 44.5284 71.97 45.1484 72.91C45.7684 73.85 46.6484 74.32 47.7884 74.32ZM63.1477 60.7L63.4477 63.67L63.5677 63.67C64.1877 62.57 64.9077 61.73 65.7277 61.15C66.5677 60.57 67.4377 60.28 68.3377 60.28C68.7977 60.28 69.1777 60.32 69.4777 60.4C69.7777 60.46 70.0577 60.54 70.3177 60.64L69.5377 64.45C69.2577 64.35 68.9777 64.28 68.6977 64.24C68.4377 64.2 68.1377 64.18 67.7977 64.18C67.1377 64.18 66.4477 64.43 65.7277 64.93C65.0077 65.41 64.4077 66.26 63.9277 67.48L63.9277 77.5L59.5477 77.5L59.5477 60.7L63.1477 60.7ZM76.9041 53.56L76.9041 67.96L77.0241 67.96L82.8441 60.7L87.6441 60.7L81.8241 67.57L88.1841 77.5L83.4141 77.5L79.3341 70.54L76.9041 73.3L76.9041 77.5L72.6141 77.5L72.6141 53.56L76.9041 53.56ZM90.3882 58L90.3882 53.74L94.7682 53.74L94.7682 58L90.3882 58ZM90.3582 60.7L94.7382 60.7L94.7382 77.5L90.3582 77.5L90.3582 60.7ZM102.669 60.7L102.969 62.92L103.089 62.92C103.829 62.2 104.639 61.58 105.519 61.06C106.399 60.54 107.409 60.28 108.549 60.28C110.369 60.28 111.689 60.88 112.509 62.08C113.329 63.26 113.739 64.91 113.739 67.03L113.739 77.5L109.329 77.5L109.329 67.57C109.329 66.27 109.139 65.36 108.759 64.84C108.399 64.32 107.799 64.06 106.959 64.06C106.259 64.06 105.659 64.22 105.159 64.54C104.659 64.86 104.089 65.33 103.449 65.95L103.449 77.5L99.0692 77.5L99.0692 60.7L102.669 60.7ZM124.198 84.79C123.218 84.79 122.298 84.7 121.438 84.52C120.578 84.36 119.828 84.1 119.188 83.74C118.568 83.38 118.078 82.93 117.718 82.39C117.358 81.85 117.178 81.21 117.178 80.47C117.178 79.77 117.388 79.12 117.808 78.52C118.228 77.94 118.818 77.43 119.578 76.99L119.578 76.84C119.138 76.56 118.768 76.2 118.468 75.76C118.188 75.3 118.048 74.72 118.048 74.02C118.048 73.38 118.228 72.79 118.588 72.25C118.968 71.69 119.408 71.23 119.908 70.87L119.908 70.75C119.328 70.33 118.808 69.74 118.348 68.98C117.908 68.22 117.688 67.35 117.688 66.37C117.688 65.37 117.868 64.5 118.228 63.76C118.608 63 119.108 62.36 119.728 61.84C120.368 61.32 121.088 60.93 121.888 60.67C122.708 60.41 123.568 60.28 124.468 60.28C124.928 60.28 125.378 60.32 125.818 60.4C126.258 60.48 126.648 60.58 126.988 60.7L133.048 60.7L133.048 63.94L130.168 63.94C130.388 64.22 130.568 64.59 130.708 65.05C130.868 65.49 130.948 65.97 130.948 66.49C130.948 67.43 130.778 68.26 130.438 68.98C130.098 69.68 129.638 70.27 129.058 70.75C128.478 71.23 127.788 71.59 126.988 71.83C126.208 72.07 125.368 72.19 124.468 72.19C124.128 72.19 123.768 72.16 123.388 72.1C123.028 72.02 122.668 71.92 122.308 71.8C122.068 72 121.888 72.21 121.768 72.43C121.648 72.63 121.588 72.9 121.588 73.24C121.588 73.7 121.768 74.05 122.128 74.29C122.508 74.51 123.208 74.62 124.228 74.62L127.078 74.62C129.138 74.62 130.688 74.95 131.728 75.61C132.788 76.25 133.318 77.32 133.318 78.82C133.318 79.66 133.108 80.44 132.688 81.16C132.268 81.9 131.658 82.54 130.858 83.08C130.078 83.62 129.128 84.04 128.008 84.34C126.888 84.64 125.618 84.79 124.198 84.79ZM124.468 69.46C125.208 69.46 125.828 69.2 126.328 68.68C126.828 68.16 127.078 67.39 127.078 66.37C127.078 65.35 126.828 64.58 126.328 64.06C125.848 63.54 125.228 63.28 124.468 63.28C123.708 63.28 123.078 63.54 122.578 64.06C122.078 64.58 121.828 65.35 121.828 66.37C121.828 67.39 122.078 68.16 122.578 68.68C123.098 69.2 123.728 69.46 124.468 69.46ZM124.858 82C126.118 82 127.138 81.76 127.918 81.28C128.718 80.8 129.118 80.23 129.118 79.57C129.118 78.97 128.878 78.57 128.398 78.37C127.918 78.17 127.228 78.07 126.328 78.07L124.288 78.07C123.768 78.07 123.318 78.05 122.938 78.01C122.578 77.97 122.248 77.91 121.948 77.83C121.208 78.43 120.838 79.08 120.838 79.78C120.838 80.48 121.188 81.02 121.888 81.4C122.608 81.8 123.598 82 124.858 82Z" fill="white"/>
<g clip-path="url(#clip2_180_9375)">
<path d="M12.8648 87.2943C15.3332 87.8411 17.6721 88.9724 19.6884 90.5441C21.58 90.3317 23.5777 90.4185 25.5996 90.8073C28.6966 91.4034 31.6807 92.7086 34.0034 94.479C34.9172 95.1764 35.0905 96.4707 34.3899 97.3702C33.6906 98.2701 32.3808 98.4342 31.467 97.7367C29.2248 96.0277 26.3654 94.9569 23.5261 94.6443C24.1022 95.4962 24.6038 96.4019 25.0217 97.351C26.1201 99.8515 26.5387 103.086 26.1404 106.003C25.6514 109.586 23.9887 112.385 21.4589 113.884C18.9008 115.401 15.547 115.462 13.1136 114.037C9.39773 111.863 7.47282 107.66 7.96518 102.795C8.42979 98.1967 10.9419 94.1545 14.4329 92.1363C13.308 91.6269 12.1182 91.2818 10.8995 91.1313C8.38455 90.8203 5.62938 91.4588 3.33815 92.8835C1.00885 94.3321 -0.638839 96.4268 -1.30263 98.7802C-1.61068 99.875 -2.76237 100.509 -3.87051 100.2C-4.9797 99.8895 -5.62889 98.75 -5.32055 97.6539C-4.38073 94.3181 -2.09972 91.3835 1.10344 89.3915C4.23573 87.4429 7.89202 86.6075 11.3952 87.0418C11.8887 87.1033 12.3798 87.1882 12.8645 87.2956L12.8648 87.2943ZM16.1544 110.849C17.1673 111.074 18.3665 110.901 19.3028 110.346C21.5324 109.025 23.38 103.939 21.1993 98.9751C20.5374 97.4685 19.5959 96.1054 18.4581 94.9533C18.1967 95.0205 17.9394 95.0957 17.687 95.1804C14.7854 96.1521 12.4943 99.46 12.1132 103.225C11.7873 106.445 12.9502 109.162 15.2222 110.492C15.5009 110.655 15.8164 110.774 16.1531 110.849L16.1544 110.849Z" fill="#F43160"/>
</g>
<g clip-path="url(#clip3_180_9375)">
<path d="M161.651 69.775C160.32 68.5163 159.287 66.9426 158.619 65.2152C157.365 64.643 156.155 63.8455 155.043 62.8511C153.34 61.3278 151.972 59.4058 151.187 57.4409C150.879 56.6673 151.253 55.7984 152.023 55.5001C152.793 55.2011 153.668 55.5867 153.976 56.3603C154.734 58.2571 156.112 59.9871 157.76 61.2382C157.719 60.4943 157.745 59.7447 157.838 58.9993C158.086 57.0363 159.03 54.8702 160.364 53.2055C162.002 51.1604 164.077 50.0398 166.207 50.0502C168.362 50.0593 170.469 51.2696 171.451 53.061C172.951 55.7958 172.583 59.1243 170.466 61.9648C168.465 64.6498 165.399 66.227 162.478 66.1819C162.988 66.9172 163.599 67.5746 164.3 68.1218C165.748 69.2512 167.698 69.88 169.652 69.8474C171.639 69.8141 173.443 69.1256 174.731 67.91C175.33 67.3442 176.282 67.3791 176.856 67.9835C177.43 68.5893 177.409 69.5392 176.809 70.1057C174.984 71.8291 172.473 72.8039 169.741 72.8496C167.069 72.8947 164.486 72.0529 162.47 70.4789C162.186 70.257 161.913 70.0215 161.651 69.7743L161.651 69.775ZM168.374 53.9106C167.828 53.3941 167.018 53.0553 166.23 53.0517C164.353 53.0422 161.311 55.5159 160.819 59.4127C160.669 60.5955 160.747 61.7932 161.025 62.9328C161.213 62.9882 161.401 63.0373 161.589 63.0786C163.754 63.5548 166.409 62.3517 168.048 60.1537C169.449 58.2737 169.738 56.152 168.821 54.4795C168.708 54.2745 168.556 54.083 168.375 53.9113L168.374 53.9106Z" fill="#F43160"/>
</g>
<path d="M45.5 92.5L63.5 106L49.9698 109.678L45.5 92.5Z" fill="#F43160"/>
<circle cx="154.5" cy="101.5" r="3" transform="rotate(-90 154.5 101.5)" fill="#F43160"/>
<circle cx="239" cy="7" r="15.5" transform="rotate(-90 239 7)" fill="#F43160"/>
</g>
<defs>
<clipPath id="clip0_180_9375">
<rect width="122" height="250" fill="white" transform="translate(0.5 122.5) rotate(-90)"/>
</clipPath>
<clipPath id="clip1_180_9375">
<rect width="96" height="96" fill="white" transform="translate(176.5 145.5) rotate(-90)"/>
</clipPath>
<clipPath id="clip2_180_9375">
<rect width="38.9108" height="26.4037" fill="white" transform="translate(29.9941 118.133) rotate(-167.509)"/>
</clipPath>
<clipPath id="clip3_180_9375">
<rect width="28.1894" height="19.1285" fill="white" transform="translate(162.483 44.2319) rotate(43.4094)"/>
</clipPath>
</defs>
</svg>
