<svg width="289" height="321" viewBox="0 0 289 321" fill="none" xmlns="http://www.w3.org/2000/svg">
<g clip-path="url(#clip0_168_7373)">
<path d="M260.5 151.503L225.099 175.787L243.63 214.522L200.809 217.809L197.522 260.63L158.787 242.099L134.503 277.5L110.213 242.099L71.4782 260.63L68.1982 217.809L25.3703 214.522L43.9076 175.787L8.5 151.503L43.9076 127.213L25.3703 88.4782L68.1982 85.1982L71.4782 42.3703L110.213 60.9076L134.503 25.5L158.787 60.9076L197.522 42.3703L200.809 85.1982L243.63 88.4782L225.099 127.213L260.5 151.503Z" fill="#B3D5FF"/>
<path d="M134.503 260.784C134.066 260.784 133.656 260.569 133.408 260.213L113.224 230.881L81.0759 246.206C80.6794 246.394 80.2223 246.374 79.8392 246.159C79.4628 245.937 79.2141 245.547 79.1805 245.117L76.4046 209.609L40.8963 206.833C40.4594 206.799 40.0695 206.55 39.8545 206.174C39.6394 205.798 39.6192 205.334 39.8074 204.937L55.1319 172.789L25.8003 152.606C25.4374 152.357 25.229 151.947 25.229 151.51C25.229 151.073 25.4441 150.663 25.8003 150.414L55.1319 130.231L39.8074 98.0827C39.6192 97.6862 39.6394 97.2291 39.8545 96.846C40.0695 96.4629 40.4661 96.221 40.8963 96.1873L76.4046 93.4115L79.1805 57.9031C79.2141 57.4662 79.4628 57.0764 79.8392 56.8613C80.2156 56.6395 80.6794 56.626 81.0759 56.8142L113.224 72.1387L133.408 42.8071C133.656 42.4442 134.066 42.2358 134.503 42.2358C134.94 42.2358 135.35 42.4509 135.599 42.8071L155.783 72.1387L187.93 56.8142C188.327 56.626 188.784 56.6462 189.167 56.8613C189.544 57.0831 189.792 57.4729 189.826 57.9031L192.602 93.4115L228.11 96.1873C228.547 96.221 228.937 96.4696 229.152 96.846C229.374 97.2224 229.387 97.6862 229.199 98.0827L213.874 130.231L243.206 150.414C243.569 150.663 243.777 151.073 243.777 151.51C243.777 151.947 243.562 152.357 243.206 152.606L213.874 172.789L229.199 204.937C229.387 205.334 229.367 205.791 229.152 206.174C228.937 206.557 228.54 206.799 228.11 206.833L192.602 209.609L189.826 245.117C189.792 245.554 189.544 245.944 189.167 246.159C188.791 246.381 188.327 246.394 187.93 246.206L155.783 230.881L135.599 260.213C135.35 260.576 134.94 260.784 134.503 260.784ZM113.674 227.87C114.097 227.87 114.514 228.072 114.77 228.441L134.503 257.121L154.237 228.441C154.606 227.904 155.312 227.716 155.897 227.998L187.326 242.98L190.041 208.264C190.095 207.612 190.612 207.095 191.257 207.048L225.973 204.332L210.998 172.904C210.715 172.312 210.904 171.613 211.441 171.244L240.121 151.51L211.441 131.776C210.904 131.407 210.715 130.701 210.998 130.116L225.979 98.6877L191.264 95.9723C190.612 95.9185 190.095 95.401 190.048 94.7557L187.332 60.0404L155.904 75.0221C155.319 75.3044 154.613 75.1162 154.243 74.5785L134.51 45.8989L114.776 74.5785C114.407 75.1162 113.701 75.3044 113.116 75.0221L81.6875 60.0404L78.9722 94.7557C78.9184 95.4077 78.4009 95.9252 77.7556 95.9723L43.0403 98.6877L58.022 130.116C58.3043 130.708 58.1161 131.407 57.5784 131.776L28.8988 151.51L57.5784 171.244C58.1161 171.613 58.3043 172.319 58.022 172.904L43.0403 204.332L77.7556 207.048C78.4076 207.101 78.9251 207.619 78.9722 208.264L81.6875 242.98L113.116 227.998C113.298 227.911 113.493 227.87 113.687 227.87H113.674Z" fill="#C3FBDC"/>
<path d="M210.689 151.503L156.717 155.953L204.895 180.674L153.35 164.065L188.374 205.374L147.065 170.35L163.674 221.895L138.953 173.717L134.503 227.689L130.054 173.717L105.333 221.895L121.935 170.35L80.6257 205.374L115.65 164.065L64.1049 180.674L112.283 155.953L58.3179 151.503L112.283 147.054L64.1049 122.333L115.65 138.935L80.6324 97.6258L121.935 132.65L105.333 81.105L130.054 129.283L134.503 75.3113L138.953 129.283L163.674 81.105L147.065 132.65L188.374 97.6326L153.35 138.935L204.895 122.333L156.717 147.054L210.689 151.503Z" fill="#BDDEFF"/>
<path d="M92.4754 131.81C92.4754 133.961 91.7966 135.849 90.4456 137.483C89.0946 139.116 87.1723 140.265 84.6922 140.937C82.8573 141.428 80.6124 141.717 77.9642 141.804C75.316 141.899 72.52 141.946 69.5626 141.946C68.4872 141.946 67.3312 141.932 66.0878 141.905C64.8443 141.878 63.5538 141.852 62.2163 141.818C62.2163 139.687 62.223 137.18 62.2365 134.31C62.2499 131.434 62.2566 127.905 62.2566 123.724C62.2566 121.876 62.2499 118.872 62.2365 114.711C62.223 110.551 62.2163 108.339 62.2163 108.071C62.5389 108.071 63.3656 108.044 64.683 107.983C66.0071 107.923 67.6336 107.896 69.5559 107.896C73.098 107.896 75.8672 107.923 77.8567 107.97C79.8462 108.023 81.7684 108.299 83.6235 108.803C85.6533 109.361 87.2664 110.282 88.4762 111.572C89.6794 112.869 90.2843 114.456 90.2843 116.338C90.2843 117.749 89.9684 119.087 89.35 120.357C88.7249 121.627 87.6563 122.656 86.144 123.442V123.57C86.7892 123.724 87.3471 123.906 87.8108 124.128C88.2746 124.349 88.7115 124.598 89.1215 124.88C90.2843 125.673 91.1311 126.668 91.6688 127.878C92.2065 129.088 92.4754 130.399 92.4754 131.81ZM80.1016 129.518C80.1016 128.859 79.9739 128.315 79.7185 127.878C79.463 127.441 79.1404 127.098 78.7573 126.843C78.5086 126.675 78.1927 126.534 77.8231 126.426C77.4467 126.319 77.0501 126.265 76.62 126.265C76.3377 126.265 75.9882 126.285 75.558 126.319L74.5901 122.864C74.9598 122.851 75.3765 122.75 75.847 122.562C76.3175 122.38 76.6536 122.192 76.8619 122.01C77.198 121.708 77.4668 121.352 77.6685 120.948C77.8634 120.545 77.9642 119.967 77.9642 119.208C77.9642 118.791 77.8567 118.327 77.6349 117.836C77.4131 117.339 77.1039 116.969 76.7073 116.714C76.3713 116.492 76.015 116.344 75.6387 116.257C75.2623 116.176 74.8859 116.129 74.5028 116.129C74.0928 116.149 73.8105 116.156 73.6626 116.156C73.6626 116.882 73.6559 117.816 73.6424 118.979C73.629 120.135 73.6223 121.748 73.6223 123.818C73.6357 129.585 73.6424 132.59 73.6424 132.845C73.7433 132.845 73.9516 132.858 74.2675 132.885C74.5834 132.912 75.0606 132.926 75.6924 132.926C76.1024 132.926 76.5931 132.885 77.1577 132.811C77.7222 132.738 78.1726 132.603 78.5154 132.422C78.9993 132.166 79.3891 131.776 79.6714 131.252C79.9604 130.721 80.1016 130.15 80.1016 129.525V129.518Z" fill="#6391B7"/>
<path d="M128.736 124.954C128.736 127.596 128.3 130.049 127.426 132.314C126.552 134.579 125.188 136.622 123.333 138.437C121.874 139.869 120.126 140.951 118.083 141.704C116.04 142.45 113.856 142.826 111.53 142.826C109.204 142.826 107.06 142.47 105.044 141.757C103.028 141.045 101.26 139.956 99.7274 138.491C97.9329 136.743 96.5752 134.72 95.6477 132.428C94.7201 130.136 94.2563 127.643 94.2563 124.954C94.2563 122.266 94.6663 119.967 95.4931 117.796C96.3198 115.625 97.5565 113.683 99.2234 111.949C100.749 110.369 102.537 109.166 104.58 108.346C106.623 107.526 108.909 107.109 111.436 107.109C113.835 107.109 116.047 107.479 118.083 108.218C120.12 108.958 121.948 110.127 123.561 111.72C125.322 113.468 126.626 115.457 127.466 117.682C128.306 119.907 128.723 122.333 128.723 124.954H128.736ZM116.322 125.042C116.322 123.98 116.174 122.898 115.872 121.795C115.569 120.693 115.072 119.813 114.387 119.154C114.05 118.818 113.634 118.536 113.15 118.307C112.666 118.078 112.108 117.964 111.476 117.964C110.844 117.964 110.334 118.078 109.863 118.307C109.393 118.536 108.929 118.892 108.472 119.382C107.901 120.021 107.457 120.854 107.148 121.883C106.839 122.911 106.684 123.926 106.684 124.941C106.684 126.016 106.832 127.065 107.128 128.086C107.423 129.108 107.894 129.962 108.539 130.647C108.922 131.071 109.359 131.393 109.863 131.622C110.36 131.85 110.932 131.965 111.564 131.965C112.121 131.965 112.646 131.85 113.143 131.622C113.634 131.393 114.077 131.077 114.474 130.674C115.106 130.015 115.576 129.155 115.872 128.086C116.168 127.018 116.322 126.003 116.322 125.042Z" fill="#6391B7"/>
<path d="M165.32 124.954C165.32 127.596 164.883 130.049 164.01 132.314C163.136 134.579 161.772 136.622 159.916 138.437C158.458 139.869 156.71 140.951 154.667 141.704C152.624 142.45 150.44 142.826 148.114 142.826C145.788 142.826 143.644 142.47 141.628 141.757C139.612 141.045 137.844 139.956 136.311 138.491C134.517 136.743 133.159 134.72 132.232 132.428C131.304 130.136 130.84 127.643 130.84 124.954C130.84 122.266 131.25 119.967 132.077 117.796C132.904 115.625 134.14 113.683 135.807 111.949C137.333 110.369 139.121 109.166 141.164 108.346C143.207 107.526 145.493 107.109 148.02 107.109C150.419 107.109 152.631 107.479 154.667 108.218C156.704 108.958 158.532 110.127 160.145 111.72C161.906 113.468 163.21 115.457 164.05 117.682C164.89 119.907 165.307 122.333 165.307 124.954H165.32ZM152.906 125.042C152.906 123.98 152.758 122.898 152.456 121.795C152.153 120.693 151.656 119.813 150.97 119.154C150.634 118.818 150.218 118.536 149.734 118.307C149.25 118.078 148.692 117.964 148.06 117.964C147.428 117.964 146.918 118.078 146.447 118.307C145.977 118.536 145.513 118.892 145.056 119.382C144.484 120.021 144.041 120.854 143.732 121.883C143.423 122.911 143.268 123.926 143.268 124.941C143.268 126.016 143.416 127.065 143.712 128.086C144.007 129.108 144.478 129.962 145.123 130.647C145.506 131.071 145.943 131.393 146.447 131.622C146.944 131.85 147.516 131.965 148.148 131.965C148.705 131.965 149.23 131.85 149.727 131.622C150.218 131.393 150.661 131.077 151.058 130.674C151.69 130.015 152.16 129.155 152.456 128.086C152.752 127.018 152.906 126.003 152.906 125.042Z" fill="#6391B7"/>
<path d="M209.143 139.976L197.562 142.47L194.961 127.045H194.739C194.565 127.663 194.208 128.967 193.677 130.95C193.146 132.932 192.508 135.426 191.762 138.437H183.031C182.177 134.962 181.512 132.381 181.021 130.701C180.537 129.021 180.181 127.804 179.966 127.045H179.744C179.509 128.335 179.153 130.466 178.675 133.437C178.198 136.401 177.721 139.412 177.251 142.47L165.939 139.976C167.585 131.292 168.856 124.275 169.743 118.932C170.63 113.589 171.208 110.188 171.477 108.722L183.253 107.54C183.515 108.548 184.026 110.531 184.785 113.488C185.545 116.445 186.405 119.759 187.38 123.422H187.601C188.482 120.431 189.43 117.178 190.438 113.669C191.446 110.161 192.037 108.118 192.212 107.546L204.539 108.729C204.673 109.583 205.103 112.681 205.843 118.005C206.575 123.335 207.678 130.661 209.15 139.983L209.143 139.976Z" fill="#6391B7"/>
<path d="M92.3006 127.159C92.3006 129.31 91.6217 131.198 90.2708 132.832C88.9198 134.465 86.9975 135.614 84.5174 136.286C82.6825 136.777 80.4376 137.066 77.7894 137.153C75.1412 137.247 72.3452 137.295 69.3878 137.295C68.3124 137.295 67.1564 137.281 65.9129 137.254C64.6695 137.227 63.379 137.2 62.0415 137.167C62.0415 135.036 62.0482 132.529 62.0617 129.659C62.0751 126.782 62.0818 123.254 62.0818 119.073C62.0818 117.225 62.0751 114.22 62.0617 110.06C62.0482 105.9 62.0415 103.688 62.0415 103.419C62.3641 103.419 63.1908 103.392 64.5082 103.332C65.8323 103.272 67.4588 103.245 69.3811 103.245C72.9232 103.245 75.6924 103.272 77.6819 103.319C79.6714 103.372 81.5936 103.648 83.4487 104.152C85.4785 104.71 87.0916 105.631 88.3014 106.921C89.5045 108.218 90.1095 109.805 90.1095 111.687C90.1095 113.098 89.7936 114.436 89.1752 115.706C88.5501 116.976 87.4815 118.005 85.9692 118.791V118.919C86.6144 119.073 87.1723 119.255 87.636 119.476C88.0998 119.698 88.5367 119.947 88.9467 120.229C90.1095 121.022 90.9563 122.017 91.494 123.227C92.0317 124.437 92.3006 125.747 92.3006 127.159ZM79.9268 124.867C79.9268 124.208 79.7991 123.664 79.5436 123.227C79.2882 122.79 78.9656 122.447 78.5825 122.192C78.3338 122.024 78.0179 121.883 77.6483 121.775C77.2719 121.668 76.8753 121.614 76.4451 121.614C76.1629 121.614 75.8134 121.634 75.3832 121.668L74.4153 118.213C74.785 118.199 75.2017 118.099 75.6722 117.91C76.1427 117.729 76.4788 117.541 76.6871 117.359C77.0232 117.057 77.292 116.701 77.4937 116.297C77.6886 115.894 77.7894 115.316 77.7894 114.557C77.7894 114.14 77.6819 113.676 77.4601 113.185C77.2383 112.688 76.9291 112.318 76.5325 112.063C76.1965 111.841 75.8402 111.693 75.4638 111.606C75.0875 111.525 74.7111 111.478 74.328 111.478C73.918 111.498 73.6357 111.505 73.4878 111.505C73.4878 112.231 73.4811 113.165 73.4676 114.328C73.4542 115.484 73.4475 117.097 73.4475 119.167C73.4609 124.934 73.4676 127.939 73.4676 128.194C73.5685 128.194 73.7768 128.207 74.0927 128.234C74.4086 128.261 74.8858 128.275 75.5176 128.275C75.9276 128.275 76.4183 128.234 76.9829 128.16C77.5474 128.086 77.9978 127.952 78.3405 127.77C78.8245 127.515 79.2143 127.125 79.4966 126.601C79.7856 126.07 79.9268 125.499 79.9268 124.874V124.867Z" fill="#F32E46"/>
<path d="M128.555 120.303C128.555 122.945 128.118 125.398 127.245 127.663C126.371 129.928 125.006 131.971 123.151 133.786C121.693 135.218 119.945 136.3 117.902 137.053C115.859 137.799 113.674 138.175 111.349 138.175C109.023 138.175 106.879 137.819 104.863 137.106C102.846 136.394 101.079 135.305 99.5463 133.84C97.7517 132.092 96.394 130.069 95.4665 127.777C94.539 125.485 94.0752 122.992 94.0752 120.303C94.0752 117.615 94.4852 115.316 95.3119 113.145C96.1386 110.974 97.3753 109.032 99.0422 107.298C100.568 105.718 102.356 104.515 104.399 103.695C106.442 102.875 108.728 102.458 111.255 102.458C113.654 102.458 115.866 102.828 117.902 103.567C119.939 104.307 121.767 105.476 123.38 107.069C125.141 108.817 126.445 110.806 127.285 113.031C128.125 115.256 128.542 117.682 128.542 120.303H128.555ZM116.141 120.391C116.141 119.329 115.993 118.246 115.691 117.144C115.388 116.042 114.891 115.161 114.205 114.503C113.869 114.167 113.453 113.884 112.969 113.656C112.485 113.427 111.927 113.313 111.295 113.313C110.663 113.313 110.152 113.427 109.682 113.656C109.211 113.884 108.748 114.241 108.291 114.731C107.719 115.37 107.276 116.203 106.967 117.232C106.657 118.26 106.503 119.275 106.503 120.29C106.503 121.365 106.651 122.414 106.946 123.435C107.242 124.457 107.713 125.311 108.358 125.996C108.741 126.42 109.178 126.742 109.682 126.971C110.179 127.199 110.751 127.313 111.382 127.313C111.94 127.313 112.465 127.199 112.962 126.971C113.453 126.742 113.896 126.426 114.293 126.023C114.925 125.364 115.395 124.504 115.691 123.435C115.986 122.367 116.141 121.352 116.141 120.391Z" fill="#F32E46"/>
<path d="M165.146 120.303C165.146 122.945 164.709 125.398 163.835 127.663C162.961 129.928 161.597 131.971 159.742 133.786C158.283 135.218 156.536 136.3 154.492 137.053C152.449 137.799 150.265 138.175 147.939 138.175C145.614 138.175 143.47 137.819 141.453 137.106C139.437 136.394 137.669 135.305 136.137 133.84C134.342 132.092 132.984 130.069 132.057 127.777C131.129 125.485 130.666 122.992 130.666 120.303C130.666 117.615 131.076 115.316 131.902 113.145C132.729 110.974 133.966 109.032 135.633 107.298C137.158 105.718 138.946 104.515 140.989 103.695C143.033 102.875 145.318 102.458 147.845 102.458C150.245 102.458 152.456 102.828 154.492 103.567C156.529 104.307 158.357 105.476 159.97 107.069C161.731 108.817 163.035 110.806 163.875 113.031C164.715 115.256 165.132 117.682 165.132 120.303H165.146ZM152.731 120.391C152.731 119.329 152.584 118.246 152.281 117.144C151.979 116.042 151.481 115.161 150.796 114.503C150.46 114.167 150.043 113.884 149.559 113.656C149.075 113.427 148.517 113.313 147.885 113.313C147.254 113.313 146.743 113.427 146.272 113.656C145.802 113.884 145.338 114.241 144.881 114.731C144.31 115.37 143.866 116.203 143.557 117.232C143.248 118.26 143.093 119.275 143.093 120.29C143.093 121.365 143.241 122.414 143.537 123.435C143.832 124.457 144.303 125.311 144.948 125.996C145.331 126.42 145.768 126.742 146.272 126.971C146.77 127.199 147.341 127.313 147.973 127.313C148.531 127.313 149.055 127.199 149.552 126.971C150.043 126.742 150.487 126.426 150.883 126.023C151.515 125.364 151.985 124.504 152.281 123.435C152.577 122.367 152.731 121.352 152.731 120.391Z" fill="#F32E46"/>
<path d="M208.961 135.325L197.381 137.819L194.779 122.394H194.558C194.383 123.012 194.027 124.316 193.496 126.299C192.965 128.281 192.326 130.775 191.58 133.786H182.849C181.996 130.311 181.33 127.73 180.84 126.05C180.356 124.37 179.999 123.153 179.784 122.394H179.563C179.327 123.684 178.971 125.815 178.494 128.785C178.017 131.749 177.539 134.761 177.069 137.819L165.757 135.325C167.404 126.641 168.674 119.624 169.561 114.281C170.449 108.938 171.027 105.537 171.295 104.071L183.071 102.888C183.333 103.897 183.844 105.879 184.603 108.837C185.363 111.794 186.223 115.108 187.198 118.771H187.42C188.3 115.78 189.248 112.527 190.256 109.018C191.264 105.51 191.856 103.466 192.03 102.895L204.357 104.078C204.492 104.932 204.922 108.03 205.661 113.353C206.394 118.683 207.496 126.01 208.968 135.332L208.961 135.325Z" fill="#F32E46"/>
<path d="M111.349 167.742L107.753 169.12C107.679 168.844 107.491 168.232 107.188 167.292C106.886 166.351 106.529 165.289 106.113 164.106H100.501C100.07 165.309 99.7074 166.377 99.405 167.318C99.1025 168.259 98.9143 168.858 98.8471 169.12L95.4663 167.802C95.6612 167.298 96.4342 165.295 97.765 161.8C99.0958 158.305 100.373 154.951 101.583 151.739H105.32C106.583 155.113 107.88 158.561 109.211 162.076C110.542 165.591 111.255 167.48 111.349 167.735V167.742ZM105.252 161.484C104.97 160.624 104.668 159.683 104.332 158.655C103.996 157.626 103.666 156.611 103.33 155.623H103.283C103.001 156.443 102.671 157.452 102.288 158.648C101.905 159.851 101.589 160.792 101.354 161.484V161.498H105.252V161.484Z" fill="#2D61BE" stroke="#174DAD" stroke-miterlimit="10"/>
<path d="M124.59 155.334C124.28 155.334 123.696 155.334 122.829 155.321C121.962 155.314 120.913 155.307 119.683 155.307C119.67 156.625 119.656 157.687 119.649 158.48C119.643 159.273 119.636 160.315 119.636 161.578C119.636 163.017 119.636 164.401 119.656 165.746C119.67 167.083 119.676 168.085 119.683 168.737H116.033C116.04 168.105 116.047 167.144 116.054 165.86C116.06 164.576 116.067 163.138 116.067 161.572V158.608C116.067 157.794 116.06 156.692 116.047 155.307C114.844 155.307 113.762 155.307 112.814 155.321C111.866 155.334 111.302 155.334 111.127 155.334V151.893C111.698 151.893 112.639 151.893 113.936 151.893C115.24 151.893 116.538 151.893 117.828 151.893C119.32 151.893 120.745 151.893 122.109 151.893C123.474 151.893 124.301 151.893 124.583 151.893V155.334H124.59Z" fill="#2D61BE" stroke="#174DAD" stroke-miterlimit="10"/>
<path d="M142.966 155.334C142.656 155.334 142.072 155.334 141.205 155.321C140.338 155.314 139.289 155.307 138.059 155.307C138.046 156.625 138.032 157.687 138.025 158.48C138.019 159.273 138.012 160.315 138.012 161.578C138.012 163.017 138.012 164.401 138.032 165.746C138.046 167.083 138.052 168.085 138.059 168.737H134.409C134.416 168.105 134.423 167.144 134.43 165.86C134.436 164.576 134.443 163.138 134.443 161.572V158.608C134.443 157.794 134.436 156.692 134.423 155.307C133.22 155.307 132.138 155.307 131.19 155.321C130.242 155.334 129.678 155.334 129.503 155.334V151.893C130.074 151.893 131.015 151.893 132.312 151.893C133.616 151.893 134.914 151.893 136.204 151.893C137.696 151.893 139.121 151.893 140.485 151.893C141.85 151.893 142.677 151.893 142.959 151.893V155.334H142.966Z" fill="#2D61BE" stroke="#174DAD" stroke-miterlimit="10"/>
<path d="M158.895 168.743H155.245C155.245 168.266 155.245 167.453 155.259 166.317C155.272 165.181 155.279 163.662 155.279 161.76C155.03 161.76 154.499 161.76 153.692 161.76C152.886 161.76 152.227 161.76 151.716 161.76C151.159 161.76 150.527 161.76 149.814 161.76C149.102 161.76 148.645 161.76 148.443 161.76C148.443 163.521 148.443 164.979 148.457 166.135C148.463 167.285 148.47 168.159 148.477 168.743H144.827C144.834 168.138 144.841 167.224 144.854 166.001C144.867 164.778 144.867 162.647 144.867 159.602C144.867 158.648 144.867 157.485 144.854 156.127C144.841 154.763 144.834 153.345 144.827 151.866H148.477C148.477 153.076 148.477 154.205 148.463 155.247C148.45 156.289 148.45 157.317 148.45 158.325C148.658 158.325 149.068 158.325 149.693 158.325C150.318 158.325 150.997 158.325 151.737 158.325C152.355 158.325 153.041 158.325 153.807 158.325C154.566 158.325 155.064 158.325 155.292 158.325C155.292 157.357 155.292 156.336 155.272 155.247C155.259 154.165 155.259 153.036 155.259 151.866H158.908C158.895 153.284 158.881 154.797 158.875 156.403C158.868 158.009 158.861 159.32 158.861 160.335C158.861 162.466 158.861 164.253 158.875 165.699C158.888 167.137 158.895 168.152 158.901 168.743H158.895Z" fill="#2D61BE" stroke="#174DAD" stroke-miterlimit="10"/>
<path d="M173.715 168.743C173.453 168.743 172.72 168.743 171.524 168.73C170.328 168.723 169.138 168.716 167.948 168.716C166.927 168.716 165.932 168.716 164.957 168.73C163.99 168.737 163.284 168.743 162.84 168.743C162.847 168.3 162.854 167.332 162.867 165.833C162.881 164.334 162.881 162.452 162.881 160.167C162.881 159.199 162.881 157.969 162.867 156.47C162.86 154.971 162.847 153.446 162.833 151.893C163.331 151.893 164.043 151.893 164.964 151.893C165.885 151.893 166.812 151.893 167.747 151.893C169.017 151.893 170.267 151.893 171.484 151.893C172.707 151.893 173.393 151.893 173.554 151.893V155.005C173.426 155.005 172.949 155.005 172.109 154.992C171.269 154.978 170.429 154.978 169.582 154.978C169.091 154.978 168.513 154.978 167.861 154.978C167.209 154.978 166.692 154.978 166.315 154.978C166.315 155.61 166.315 156.275 166.302 156.974C166.295 157.673 166.288 158.305 166.288 158.87C166.671 158.87 167.155 158.87 167.747 158.87C168.338 158.87 168.829 158.87 169.205 158.87C170.153 158.87 171.04 158.87 171.867 158.856C172.694 158.85 173.225 158.843 173.446 158.843V161.35C173.298 161.35 172.727 161.35 171.739 161.336C170.751 161.323 169.918 161.323 169.246 161.323C168.869 161.323 168.379 161.323 167.774 161.323C167.169 161.323 166.671 161.323 166.282 161.323C166.282 162.304 166.282 163.151 166.282 163.85C166.282 164.549 166.288 165.127 166.295 165.571C166.739 165.578 167.323 165.584 168.056 165.591C168.789 165.591 169.454 165.591 170.052 165.591C170.892 165.591 171.652 165.591 172.337 165.578C173.023 165.571 173.467 165.564 173.675 165.564V168.689L173.715 168.743Z" fill="#2D61BE" stroke="#174DAD" stroke-miterlimit="10"/>
<path d="M90.412 177.676C90.3986 179.141 90.3851 180.606 90.3784 182.085C90.3717 183.564 90.365 184.72 90.365 185.56C90.365 187.469 90.3649 189.183 90.3784 190.695C90.3918 192.207 90.3986 193.168 90.3986 193.572L87.7638 194.795C85.902 191.972 84.1814 189.451 82.5952 187.247C81.009 185.042 80.0478 183.705 79.6983 183.241L79.6445 183.268C79.6445 185.076 79.6513 187.26 79.6714 189.828C79.6916 192.395 79.6983 193.968 79.6983 194.56H76.3041C76.3108 194.143 76.3175 193.215 76.331 191.79C76.3444 190.366 76.3444 188.584 76.3444 186.46C76.3444 185.593 76.3444 184.484 76.331 183.127C76.3242 181.769 76.3108 180.317 76.2974 178.758L79.1539 177.447C79.4765 177.891 80.4377 179.242 82.0306 181.493C83.6235 183.745 85.2904 186.03 87.0178 188.349L87.0648 188.322C87.0648 187.166 87.0514 185.446 87.0312 183.167C87.011 180.889 86.9976 179.06 86.9976 177.683H90.4053L90.412 177.676Z" fill="#2D61BE" stroke="#174DAD" stroke-miterlimit="10"/>
<path d="M105.232 194.553C104.97 194.553 104.238 194.553 103.041 194.539C101.845 194.533 100.655 194.526 99.4655 194.526C98.4438 194.526 97.4491 194.526 96.4745 194.539C95.5066 194.546 94.8009 194.553 94.3573 194.553C94.364 194.109 94.3707 193.141 94.3842 191.643C94.3976 190.144 94.3976 188.262 94.3976 185.977C94.3976 185.009 94.3976 183.779 94.3842 182.28C94.3775 180.781 94.364 179.255 94.3506 177.703C94.848 177.703 95.5604 177.703 96.4812 177.703C97.402 177.703 98.3296 177.703 99.2638 177.703C100.534 177.703 101.784 177.703 103.001 177.703C104.224 177.703 104.91 177.703 105.071 177.703V180.815C104.943 180.815 104.466 180.815 103.626 180.801C102.786 180.788 101.946 180.788 101.099 180.788C100.608 180.788 100.03 180.788 99.3781 180.788C98.7261 180.788 98.2086 180.788 97.8322 180.788C97.8322 181.419 97.8322 182.085 97.8188 182.784C97.812 183.483 97.8053 184.115 97.8053 184.679C98.1884 184.679 98.6723 184.679 99.2638 184.679C99.8553 184.679 100.346 184.679 100.722 184.679C101.67 184.679 102.557 184.679 103.384 184.666C104.211 184.659 104.742 184.652 104.963 184.652V187.159C104.816 187.159 104.244 187.159 103.256 187.146C102.268 187.133 101.435 187.133 100.763 187.133C100.386 187.133 99.8956 187.133 99.2907 187.133C98.6858 187.133 98.1884 187.133 97.7986 187.133C97.7986 188.114 97.7986 188.961 97.7986 189.66C97.7986 190.359 97.8053 190.937 97.812 191.38C98.2556 191.387 98.8404 191.394 99.573 191.401C100.306 191.401 100.971 191.401 101.569 191.401C102.409 191.401 103.169 191.401 103.854 191.387C104.54 191.38 104.984 191.374 105.192 191.374V194.499L105.232 194.553Z" fill="#2D61BE" stroke="#174DAD" stroke-miterlimit="10"/>
<path d="M121.33 193.343L117.875 194.909C117.647 194.405 117.223 193.632 116.605 192.597C115.986 191.562 115.113 190.103 113.99 188.228H113.943C113.029 189.72 112.202 191.112 111.45 192.402C110.704 193.686 110.253 194.519 110.099 194.896L106.751 193.437C106.96 193.061 107.424 192.281 108.156 191.098C108.889 189.915 109.937 188.235 111.302 186.05V185.997C110.502 184.592 109.648 183.16 108.734 181.695C107.82 180.23 107.249 179.269 107.014 178.818L110.462 177.346C110.657 177.79 111.08 178.563 111.739 179.665C112.397 180.768 113.184 182.058 114.098 183.543H114.152C114.951 182.159 115.718 180.855 116.444 179.638C117.169 178.422 117.6 177.656 117.727 177.346L121.054 178.731C120.88 179.074 120.322 179.981 119.387 181.44C118.453 182.898 117.566 184.35 116.726 185.788V185.842C117.768 187.529 118.702 189.015 119.508 190.292C120.322 191.569 120.927 192.59 121.323 193.356L121.33 193.343Z" fill="#2D61BE" stroke="#174DAD" stroke-miterlimit="10"/>
<path d="M134.833 181.144C134.524 181.144 133.939 181.144 133.072 181.13C132.205 181.124 131.156 181.117 129.926 181.117C129.913 182.434 129.899 183.496 129.893 184.289C129.886 185.083 129.879 186.124 129.879 187.388C129.879 188.826 129.879 190.211 129.899 191.555C129.913 192.893 129.92 193.894 129.926 194.546H126.277C126.283 193.914 126.29 192.953 126.297 191.669C126.304 190.386 126.31 188.947 126.31 187.381V184.417C126.31 183.604 126.304 182.502 126.29 181.117C125.087 181.117 124.005 181.117 123.057 181.13C122.109 181.144 121.545 181.144 121.37 181.144V177.703C121.941 177.703 122.882 177.703 124.18 177.703C125.484 177.703 126.781 177.703 128.071 177.703C129.563 177.703 130.988 177.703 132.353 177.703C133.717 177.703 134.544 177.703 134.826 177.703V181.144H134.833Z" fill="#2D61BE" stroke="#174DAD" stroke-miterlimit="10"/>
<path d="M153.202 181.144C152.893 181.144 152.308 181.144 151.441 181.13C150.574 181.124 149.525 181.117 148.295 181.117C148.282 182.434 148.269 183.496 148.262 184.289C148.255 185.083 148.248 186.124 148.248 187.388C148.248 188.826 148.248 190.211 148.269 191.555C148.282 192.893 148.289 193.894 148.295 194.546H144.646C144.652 193.914 144.659 192.953 144.666 191.669C144.673 190.386 144.679 188.947 144.679 187.381V184.417C144.679 183.604 144.673 182.502 144.659 181.117C143.456 181.117 142.374 181.117 141.426 181.13C140.479 181.144 139.914 181.144 139.739 181.144V177.703C140.311 177.703 141.252 177.703 142.549 177.703C143.853 177.703 145.15 177.703 146.44 177.703C147.932 177.703 149.357 177.703 150.722 177.703C152.086 177.703 152.913 177.703 153.195 177.703V181.144H153.202Z" fill="#2D61BE" stroke="#174DAD" stroke-miterlimit="10"/>
<path d="M158.727 194.553H155.077C155.084 193.841 155.091 192.805 155.104 191.454C155.118 190.103 155.118 188.269 155.118 185.95C155.118 184.975 155.118 183.745 155.104 182.253C155.091 180.761 155.084 179.242 155.071 177.683H158.72C158.713 178.832 158.707 180.156 158.693 181.662C158.68 183.167 158.68 184.498 158.68 185.661C158.68 188.04 158.68 189.875 158.693 191.172C158.707 192.469 158.713 193.599 158.72 194.553H158.727Z" fill="#2D61BE" stroke="#174DAD" stroke-miterlimit="10"/>
<path d="M181.532 194.008L178.01 194.775L176.162 183.409L176.101 183.389C175.9 183.913 175.463 185.089 174.784 186.931C174.105 188.773 173.42 190.722 172.727 192.792H169.985C169.299 190.722 168.607 188.746 167.901 186.857C167.196 184.968 166.766 183.819 166.611 183.396H166.557C166.483 183.799 166.241 185.17 165.818 187.516C165.394 189.861 165.005 192.274 164.621 194.755L161.207 194.008C161.98 190.077 162.645 186.528 163.197 183.355C163.754 180.183 164.07 178.355 164.164 177.864L167.706 177.434C167.807 177.763 168.217 178.96 168.93 181.023C169.642 183.086 170.476 185.452 171.423 188.107H171.511C172.27 185.997 173.07 183.738 173.924 181.325C174.777 178.913 175.234 177.615 175.302 177.434L178.911 177.783C178.944 178.066 179.213 179.78 179.711 182.918C180.208 186.057 180.813 189.747 181.532 193.988V194.008Z" fill="#2D61BE" stroke="#174DAD" stroke-miterlimit="10"/>
<path d="M194.941 194.553C194.679 194.553 193.946 194.553 192.75 194.539C191.554 194.533 190.364 194.526 189.174 194.526C188.153 194.526 187.158 194.526 186.183 194.539C185.215 194.546 184.51 194.553 184.066 194.553C184.073 194.109 184.079 193.141 184.093 191.643C184.106 190.144 184.106 188.262 184.106 185.977C184.106 185.009 184.106 183.779 184.093 182.28C184.086 180.781 184.073 179.255 184.059 177.703C184.557 177.703 185.269 177.703 186.19 177.703C187.111 177.703 188.038 177.703 188.973 177.703C190.243 177.703 191.493 177.703 192.71 177.703C193.933 177.703 194.618 177.703 194.78 177.703V180.815C194.652 180.815 194.175 180.815 193.335 180.801C192.494 180.788 191.654 180.788 190.807 180.788C190.317 180.788 189.739 180.788 189.087 180.788C188.435 180.788 187.917 180.788 187.541 180.788C187.541 181.419 187.541 182.085 187.527 182.784C187.521 183.483 187.514 184.115 187.514 184.679C187.897 184.679 188.381 184.679 188.973 184.679C189.564 184.679 190.055 184.679 190.431 184.679C191.379 184.679 192.266 184.679 193.093 184.666C193.919 184.659 194.45 184.652 194.672 184.652V187.159C194.524 187.159 193.953 187.159 192.965 187.146C191.977 187.133 191.144 187.133 190.471 187.133C190.095 187.133 189.604 187.133 188.999 187.133C188.395 187.133 187.897 187.133 187.507 187.133C187.507 188.114 187.507 188.961 187.507 189.66C187.507 190.359 187.514 190.937 187.521 191.38C187.964 191.387 188.549 191.394 189.282 191.401C190.014 191.401 190.68 191.401 191.278 191.401C192.118 191.401 192.878 191.401 193.563 191.387C194.249 191.38 194.692 191.374 194.901 191.374V194.499L194.941 194.553Z" fill="#2D61BE" stroke="#174DAD" stroke-miterlimit="10"/>
</g>
<g clip-path="url(#clip1_168_7373)">
<path d="M236.305 194.424C236.237 194.416 236.176 194.401 236.108 194.379C235.398 194.168 235.004 193.423 235.216 192.716C235.844 190.655 237.915 186.924 240.349 185.472C244.582 182.944 249.306 182.651 253.887 182.365C258.551 182.079 262.958 181.801 266.601 179.236C270.615 176.407 273.208 172.796 274.319 168.501C274.5 167.786 275.234 167.357 275.952 167.545C276.67 167.726 277.101 168.455 276.912 169.17C275.634 174.09 272.686 178.212 268.143 181.41C263.88 184.411 258.883 184.72 254.053 185.021C249.608 185.299 245.406 185.555 241.732 187.751C240.19 188.669 238.376 191.543 237.786 193.491C237.59 194.131 236.955 194.522 236.305 194.424Z" fill="#F3AC4B"/>
<path d="M254.205 207.98L256.004 196.004L227.74 191.799L225.941 203.775C206.348 206.942 190.187 222.348 187.096 242.931C183.263 268.418 200.921 292.167 226.523 295.974C252.126 299.78 275.997 282.214 279.822 256.735C282.914 236.153 271.991 216.706 254.189 207.98H254.205Z" fill="#6161E6"/>
<path d="M281.5 283.463L268.461 284.283L263.857 296.455L263.033 283.478L250.81 278.897L263.842 278.077L268.445 265.913L269.269 278.889L281.5 283.463Z" fill="#FF765B"/>
<path d="M210.415 229.961L224.739 227.464L211.776 220.911L220.128 209.071L206.311 213.554L203.801 199.299L197.209 212.2L185.312 203.887L189.824 217.639L175.5 220.137L188.464 226.689L180.103 238.537L193.929 234.046L196.438 248.302L203.022 235.4L214.92 243.713L210.415 229.961Z" fill="#FF765B"/>
</g>
<defs>
<clipPath id="clip0_168_7373">
<rect width="252" height="252" fill="white" transform="translate(8.5 25.5)"/>
</clipPath>
<clipPath id="clip1_168_7373">
<rect width="106" height="129" fill="white" transform="translate(175.5 167.5)"/>
</clipPath>
</defs>
</svg>
