<svg width="36" height="36" viewBox="0 0 36 36" fill="none" xmlns="http://www.w3.org/2000/svg">
<g clip-path="url(#clip0_168_438)">
<path d="M15.15 16.34C15.15 17.87 13.91 19.1 12.39 19.1C10.87 19.1 9.63 17.86 9.63 16.34C9.63 14.82 10.87 13.58 12.39 13.58C13.91 13.58 15.15 14.82 15.15 16.34Z" fill="#5D8FFF"/>
<path d="M15.78 22.08C15.78 20.44 14.26 19.11 12.39 19.11C10.52 19.11 9 20.44 9 22.08V25.6H15.78V22.08Z" fill="#5D8FFF"/>
<path d="M18 15.84C18 16.19 18.2172 16.47 18.4862 16.47H26.5138C26.7828 16.47 27 16.19 27 15.84C27 15.49 26.7828 15.21 26.5138 15.21H18.4862C18.2172 15.21 18 15.49 18 15.84Z" fill="#191919"/>
<path d="M26.5138 18.9199H18.4862C18.2172 18.9199 18 19.1999 18 19.5499C18 19.8999 18.2172 20.1799 18.4862 20.1799H26.5138C26.7828 20.1799 27 19.8999 27 19.5499C27 19.1999 26.7828 18.9199 26.5138 18.9199Z" fill="#191919"/>
<path d="M26.5138 22.64H18.4862C18.2172 22.64 18 22.92 18 23.27C18 23.62 18.2172 23.9 18.4862 23.9H26.5138C26.7828 23.9 27 23.62 27 23.27C27 22.92 26.7828 22.64 26.5138 22.64Z" fill="#191919"/>
<path d="M18.23 8.75H18.86V4.49C18.86 4.22 18.58 4 18.23 4C17.88 4 17.6 4.22 17.6 4.49V8.74H18.23V8.75Z" fill="#191919"/>
<path d="M21.49 10.51C21.84 10.51 22.12 10.23 22.12 9.88C22.12 9.53 21.84 9.25 21.49 9.25H14.95C14.6 9.25 14.32 9.53 14.32 9.88C14.32 10.23 14.6 10.51 14.95 10.51H21.49Z" fill="#191919"/>
<path d="M31.25 7.57V29.51H5.2V7.57H31.25ZM31.25 6.37H5.2C4.54 6.37 4 6.91 4 7.57V29.51C4 30.17 4.54 30.71 5.2 30.71H31.25C31.91 30.71 32.45 30.17 32.45 29.51V7.57C32.45 6.91 31.91 6.37 31.25 6.37Z" fill="#191919"/>
</g>
<defs>
<clipPath id="clip0_168_438">
<rect width="28.45" height="26.71" fill="white" transform="translate(4 4)"/>
</clipPath>
</defs>
</svg>
