<svg width="16" height="16" viewBox="0 0 16 16" fill="none" xmlns="http://www.w3.org/2000/svg">
<path d="M5.75998 7.03995C6.82036 7.03995 7.67998 6.18034 7.67998 5.11995C7.67998 4.05956 6.82036 3.19995 5.75998 3.19995C4.69959 3.19995 3.83998 4.05956 3.83998 5.11995C3.83998 6.18034 4.69959 7.03995 5.75998 7.03995Z" fill="#191919"/>
<path d="M1.59998 11.84C1.59998 9.45408 3.46247 7.51995 5.75998 7.51995C8.05748 7.51995 9.91998 9.45408 9.91998 11.84V12.3345C9.91998 12.5916 9.71303 12.8 9.45775 12.8H2.0622C1.80692 12.8 1.59998 12.585 1.59998 12.32V11.84Z" fill="#191919"/>
<path d="M12.48 6.07995C12.48 6.96361 11.7636 7.67995 10.88 7.67995C9.99632 7.67995 9.27998 6.96361 9.27998 6.07995C9.27998 5.1963 9.99632 4.47995 10.88 4.47995C11.7636 4.47995 12.48 5.1963 12.48 6.07995Z" fill="#191919"/>
<path d="M14.0089 12.8H10.8022C10.8526 12.6538 10.88 12.4971 10.88 12.3345V11.869C10.88 10.6027 10.4246 9.441 9.66841 8.54286C10.0462 8.39866 10.4542 8.31995 10.88 8.31995C12.824 8.31995 14.4 9.96103 14.4 11.9854V12.3927C14.4 12.6176 14.2249 12.8 14.0089 12.8Z" fill="#191919"/>
</svg>
