<svg width="221" height="48" viewBox="0 0 221 48" fill="none" xmlns="http://www.w3.org/2000/svg">
<g id="logo_CARDME" clip-path="url(#clip0_165_2632)">
<g id="&#235;&#160;&#136;&#236;&#157;&#180;&#236;&#150;&#180; 1">
<path id="Vector" d="M111.486 0.809021H100.19V47.191H111.486V0.809021Z" fill="#5D8FFF"/>
<path id="Vector_2" d="M202.333 0.809021H189.788V47.191H202.333V0.809021Z" fill="#5D8FFF"/>
<path id="Vector_3" d="M190.173 17.7606V0.809021H188.652L181.037 22.0101C180.699 22.9958 180.37 24 180.06 25.0136C179.741 24 179.403 22.9958 179.065 22.0101L171.262 0.809021H158.52V47.191H170.022V27.5149C170.022 27.3662 170.022 27.2174 170.022 27.0593L176.098 43.3228H183.666L189.797 26.7618C189.797 27.0221 189.797 27.2639 189.797 27.5149V28.6587H190.182V17.7606H190.173Z" fill="black"/>
<g id="Group">
<path id="Vector_4" d="M202.727 28.6587V28.6215H220.362V17.7606H202.727H201.403H190.173V28.6587H201.403H202.727Z" fill="black"/>
<path id="Vector_5" d="M202.54 11.6792V11.6141H220.362V0.809021H201.403H190.173V11.6792H201.403H202.54Z" fill="black"/>
<path id="Vector_6" d="M202.314 36.3209H201.159H189.788V47.1911H201.159H221V36.3209H202.314Z" fill="black"/>
</g>
<path id="Vector_7" d="M135.468 13.7807C134.388 10.8795 132.801 8.42466 130.754 6.48123C128.716 4.54709 126.219 3.09649 123.345 2.16662C120.547 1.26464 117.364 0.809007 113.89 0.809007H100.19V11.3352H113.88V11.3538C115.486 11.391 116.951 11.6141 118.228 12.0233C119.561 12.451 120.65 13.1112 121.571 14.0411C122.481 14.9617 123.204 16.217 123.712 17.7513C124.247 19.3786 124.519 21.4336 124.519 23.8326C124.519 26.2317 124.247 28.2495 123.702 29.9233C123.195 31.5041 122.463 32.7966 121.542 33.7637C120.613 34.7307 119.514 35.4188 118.181 35.8838C116.913 36.3208 115.467 36.5533 113.871 36.5998V36.6184H100.181V43.4715L91.6639 28.6959C93.5889 27.6544 95.2039 26.2689 96.4903 24.5672C98.2274 22.2705 99.1007 19.2484 99.1007 15.5847C99.1007 12.8416 98.6124 10.489 97.6547 8.58274C96.6781 6.6579 95.3166 5.08642 93.6076 3.90548C91.955 2.77104 90.0113 1.96205 87.8141 1.48781C85.7295 1.04148 83.4478 0.809007 81.044 0.809007H64.1422V34.3588L53.2593 0.809007H40.4797L32.9397 23.9628H32.9021L30.1133 32.5641L29.4372 33.2801C28.4138 34.3588 27.2494 35.2608 25.9724 35.9489C24.7893 36.5905 23.4559 36.9066 21.8972 36.9066C20.4699 36.9066 19.2211 36.637 18.0943 36.0884C16.9675 35.5397 16.0285 34.7586 15.2116 33.6893C14.3665 32.592 13.7092 31.2251 13.2585 29.6164C12.7796 27.9427 12.5449 26.0178 12.5449 23.8977C12.5449 21.7776 12.8078 19.9086 13.3336 18.2906C13.8407 16.7005 14.5449 15.3522 15.4088 14.2643C16.2445 13.2135 17.2116 12.4324 18.3666 11.8745C19.5215 11.3166 20.7328 11.0562 22.085 11.0562C23.4371 11.0562 24.5545 11.3166 25.5686 11.8466C26.6954 12.4324 27.7471 13.1949 28.6954 14.1062L30.1509 15.501L30.6579 14.8966L34.0665 4.42621C32.9021 3.48704 31.5969 2.63156 30.1415 1.87836C27.7658 0.650929 24.9958 0.0186157 21.9066 0.0186157C18.8173 0.0186157 16.113 0.56724 13.4745 1.66449C10.8171 2.76174 8.45088 4.38901 6.45084 6.49053C4.46958 8.58274 2.88269 11.1399 1.72774 14.0969C0.582172 17.0446 0 20.4386 0 24.1953C0 27.952 0.563392 31.3739 1.66201 34.303C2.77001 37.26 4.32873 39.7799 6.28182 41.7978C8.24431 43.8249 10.5824 45.3871 13.2209 46.4471C15.8407 47.4886 18.6671 48.0279 21.6061 48.0279C23.7 48.0279 25.6625 47.749 27.5029 47.2189H38.1229L41.1464 36.265H52.2546L55.2782 47.2189H76.5181V31.0763H79.5228L88.3681 47.2189H114.34C117.721 47.2189 120.838 46.7261 123.589 45.759C126.406 44.7641 128.838 43.267 130.838 41.2863C132.829 39.315 134.388 36.823 135.468 33.8939C136.529 31.0113 137.064 27.6358 137.064 23.8605C137.064 20.0853 136.529 16.6633 135.458 13.8179L135.468 13.7807ZM49.3719 25.8877H42.8835L46.5925 12.5998L50.3015 25.8877H49.3719ZM85.4478 19.2856C84.3398 20.1503 82.5839 20.5874 80.2365 20.5874H76.5275V11.2794H80.2365C82.659 11.2794 84.4713 11.642 85.6168 12.3487C85.9361 12.544 86.922 13.1577 86.922 15.5847C86.922 17.3049 86.4432 18.5138 85.4572 19.2856H85.4478Z" fill="black"/>
</g>
</g>
<defs>
<clipPath id="clip0_165_2632">
<rect width="221" height="48" fill="white"/>
</clipPath>
</defs>
</svg>
