<svg width="16" height="16" viewBox="0 0 16 16" fill="none" xmlns="http://www.w3.org/2000/svg">
<path fill-rule="evenodd" clip-rule="evenodd" d="M7.99998 14.4001C11.5346 14.4001 14.4 11.5347 14.4 8.0001C14.4 4.46548 11.5346 1.6001 7.99998 1.6001C4.46535 1.6001 1.59998 4.46548 1.59998 8.0001C1.59998 11.5347 4.46535 14.4001 7.99998 14.4001ZM8.63994 4.8001C8.63994 4.44664 8.3534 4.1601 7.99994 4.1601C7.64647 4.1601 7.35994 4.44664 7.35994 4.8001V7.735C7.35994 8.07448 7.49479 8.40005 7.73484 8.6401L9.46739 10.3726C9.71732 10.6226 10.1225 10.6226 10.3725 10.3726C10.6224 10.1227 10.6224 9.71748 10.3725 9.46755L8.63994 7.735V4.8001Z" fill="#191919"/>
</svg>
