<svg width="36" height="36" viewBox="0 0 36 36" fill="none" xmlns="http://www.w3.org/2000/svg">
<g clip-path="url(#clip0_168_1655)">
<path d="M31.51 6.16003H4.71997V11.76H31.51V6.16003Z" fill="#5D8FFF"/>
<path d="M31.65 12.45H4.57C4.26 12.45 4 12.19 4 11.88V6.64996C4 6.05996 4.48 5.57996 5.07 5.57996H31.16C31.75 5.57996 32.23 6.05996 32.23 6.64996V11.87C32.23 12.19 31.97 12.44 31.66 12.44L31.65 12.45ZM5.15 11.3H31.09V6.72996H5.15V11.3Z" fill="#191919"/>
<path d="M31.16 32.5901H5.07C4.48 32.5901 4 32.1101 4 31.5201V11.8801C4 11.5601 4.26 11.3101 4.57 11.3101H31.65C31.97 11.3101 32.22 11.5701 32.22 11.8801V31.5201C32.22 32.1101 31.74 32.5901 31.15 32.5901H31.16ZM5.15 31.4401H31.09V12.4501H5.15V31.4401Z" fill="#191919"/>
<path d="M9.03002 8.32C8.71002 8.32 8.46002 8.06 8.46002 7.75V4.57C8.46002 4.25 8.72002 4 9.03002 4C9.34002 4 9.60002 4.26 9.60002 4.57V7.74C9.60002 8.06 9.34002 8.31 9.03002 8.31V8.32Z" fill="#191919"/>
<path d="M13.57 8.32C13.25 8.32 13 8.06 13 7.75V4.57C13 4.25 13.26 4 13.57 4C13.88 4 14.14 4.26 14.14 4.57V7.74C14.14 8.06 13.88 8.31 13.57 8.31V8.32Z" fill="#191919"/>
<path d="M18.11 8.32C17.79 8.32 17.54 8.06 17.54 7.75V4.57C17.54 4.25 17.8 4 18.11 4C18.42 4 18.68 4.26 18.68 4.57V7.74C18.68 8.06 18.42 8.31 18.11 8.31V8.32Z" fill="#191919"/>
<path d="M22.66 8.32C22.34 8.32 22.09 8.06 22.09 7.75V4.57C22.09 4.25 22.35 4 22.66 4C22.97 4 23.23 4.26 23.23 4.57V7.74C23.23 8.06 22.97 8.31 22.66 8.31V8.32Z" fill="#191919"/>
<path d="M27.2 8.32C26.88 8.32 26.63 8.06 26.63 7.75V4.57C26.63 4.25 26.89 4 27.2 4C27.51 4 27.77 4.26 27.77 4.57V7.74C27.77 8.06 27.51 8.31 27.2 8.31V8.32Z" fill="#191919"/>
<path d="M18.47 16.23L20.11 19.56C20.17 19.68 20.28 19.76 20.41 19.78L24.08 20.31C24.41 20.36 24.54 20.76 24.3 20.99L21.64 23.58C21.55 23.67 21.5 23.8 21.53 23.93L22.16 27.59C22.22 27.92 21.87 28.16 21.58 28.01L18.3 26.28C18.18 26.22 18.04 26.22 17.93 26.28L14.65 28.01C14.36 28.16 14.02 27.92 14.07 27.59L14.7 23.93C14.72 23.8 14.68 23.67 14.59 23.58L11.93 20.99C11.69 20.76 11.82 20.36 12.15 20.31L15.82 19.78C15.95 19.76 16.06 19.68 16.12 19.56L17.76 16.23C17.91 15.93 18.33 15.93 18.48 16.23H18.47Z" fill="#191919"/>
</g>
<defs>
<clipPath id="clip0_168_1655">
<rect width="28.23" height="28.59" fill="white" transform="translate(4 4)"/>
</clipPath>
</defs>
</svg>
