<svg width="191" height="197" viewBox="0 0 191 197" fill="none" xmlns="http://www.w3.org/2000/svg">
<g clip-path="url(#clip0_180_7529)">
<path d="M160.287 29.3399C160.287 47.8863 151.795 64.7457 133.299 64.7457C114.802 64.7457 99.8118 49.7147 99.8118 31.1682C99.8118 12.6218 115.82 4.07594 135.041 0.934364C154.263 -2.20721 160.287 10.8036 160.287 29.3399Z" fill="#EF4D43"/>
<path d="M31.6596 29.34C31.6596 47.8864 40.1522 64.7458 58.6485 64.7458C77.1448 64.7458 92.1352 49.7147 92.1352 31.1683C92.1352 12.6219 76.1373 4.06593 56.9157 0.924355C37.6941 -2.21722 31.6697 10.7936 31.6697 29.3299L31.6596 29.34Z" fill="#EF4D43"/>
<path d="M96.4369 15.1978H95.5101C85.9124 15.1978 78.132 22.9993 78.132 32.6229V47.3307C78.132 56.9544 85.9124 64.7559 95.5101 64.7559H96.4369C106.035 64.7559 113.815 56.9544 113.815 47.3307V32.6229C113.815 22.9993 106.035 15.1978 96.4369 15.1978Z" fill="#FF766D"/>
<path d="M8.52917 55.8464H182.481V176.146C182.481 187.378 173.384 196.5 162.181 196.5H28.8288C17.6262 196.5 8.52917 187.378 8.52917 176.146V55.8464Z" fill="#B6BBFF"/>
<path d="M11.8537 38.5222H179.156C185.423 38.5222 190.51 43.6235 190.51 49.9066V79.1405H0.5V49.9066C0.5 43.6134 5.58749 38.5222 11.8537 38.5222Z" fill="#A0AAF7"/>
<path d="M113.815 38.5222H78.132V196.51H113.815V38.5222Z" fill="#EF4D43"/>
</g>
<defs>
<clipPath id="clip0_180_7529">
<rect width="190" height="196" fill="white" transform="translate(0.5 0.5)"/>
</clipPath>
</defs>
</svg>
