<svg width="215" height="283" viewBox="0 0 215 283" fill="none" xmlns="http://www.w3.org/2000/svg">
<g clip-path="url(#clip0_180_7669)">
<path d="M92.814 10.2928C105.216 22.0506 111.124 38.465 99.4283 50.9227C87.7232 63.3804 68.1869 63.9589 55.785 52.2011C43.3832 40.4433 47.7773 24.2436 57.8381 9.29432C67.8989 -5.65494 80.4122 -1.46504 92.8233 10.2835L92.814 10.2928Z" fill="#EF4D43"/>
<path d="M11.4264 96.965C23.8283 108.723 40.4941 113.687 52.1899 101.23C63.8857 88.7718 63.319 69.1381 50.9172 57.3896C38.5154 45.6317 22.667 50.9974 8.39797 61.9527C-5.87111 72.9081 -0.984692 85.2165 11.4264 96.9743V96.965Z" fill="#EF4D43"/>
<path d="M110.541 151.984H88.6043L107.602 140.969L105.573 137.44L86.5771 148.458L97.5444 129.376L94.0315 127.338L83.0643 146.42V124.386H79.0064V146.42L68.0392 127.338L64.5263 129.376L75.4953 148.458L56.4974 137.44L54.4685 140.969L73.4664 151.984H51.5302V156.06H73.4664L54.4685 167.076L56.4974 170.604L75.4936 159.588L64.5263 178.669L68.0392 180.706L79.0064 161.625V183.658H83.0643V161.625L94.0315 180.706L97.5444 178.669L86.5771 159.588L105.573 170.604L107.602 167.076L88.6043 156.06H110.541V151.984Z" fill="#FFBFFC"/>
<g clip-path="url(#clip1_180_7669)">
<path d="M159.577 117.708L148.347 125.424L154.233 137.748L140.66 138.778L139.635 152.411L127.365 146.498L119.683 157.779L112.001 146.498L99.7312 152.411L98.706 138.778L85.1326 137.748L91.0194 125.424L79.7886 117.708L91.0194 109.992L85.1326 97.6679L98.706 96.6382L99.7312 83.0048L112.001 88.9176L119.683 77.6372L127.365 88.9176L139.635 83.0048L140.66 96.6382L154.233 97.6679L148.347 109.992L159.577 117.708Z" fill="#F0F81C"/>
<path d="M109.283 112.89C110.722 112.89 111.89 110.253 111.89 107.001C111.89 103.748 110.722 101.111 109.283 101.111C107.843 101.111 106.676 103.748 106.676 107.001C106.676 110.253 107.843 112.89 109.283 112.89Z" fill="#191919"/>
<path d="M130.153 112.89C131.593 112.89 132.76 110.253 132.76 107.001C132.76 103.748 131.593 101.111 130.153 101.111C128.713 101.111 127.546 103.748 127.546 107.001C127.546 110.253 128.713 112.89 130.153 112.89Z" fill="#191919"/>
<path d="M119.711 135.297C112.683 135.297 106.536 130.289 105.103 123.388C104.992 122.847 105.335 122.316 105.873 122.204C106.411 122.093 106.94 122.437 107.051 122.978C108.295 128.956 113.62 133.294 119.706 133.294C125.792 133.294 131.178 128.914 132.384 122.875C132.491 122.335 133.02 121.981 133.558 122.088C134.096 122.195 134.449 122.726 134.337 123.267C132.946 130.237 126.79 135.293 119.706 135.293L119.711 135.297Z" fill="#191919"/>
<path d="M103.999 124.692C103.549 124.692 103.141 124.385 103.029 123.924C102.9 123.388 103.229 122.843 103.767 122.712L107.77 121.738C108.304 121.608 108.847 121.939 108.972 122.475C109.102 123.01 108.772 123.556 108.234 123.686L104.231 124.66C104.152 124.678 104.073 124.688 103.994 124.688L103.999 124.692Z" fill="#191919"/>
<path d="M135.367 124.562C135.288 124.562 135.209 124.553 135.13 124.534L131.127 123.56C130.594 123.43 130.264 122.889 130.394 122.349C130.524 121.813 131.062 121.482 131.596 121.613L135.599 122.586C136.132 122.717 136.462 123.257 136.332 123.798C136.221 124.255 135.812 124.567 135.362 124.567L135.367 124.562Z" fill="#191919"/>
</g>
<path d="M42.9603 44.356L42.3739 44.9805C36.3008 51.4473 36.5965 61.6351 43.0343 67.7355L52.8732 77.0588C59.311 83.1592 69.4531 82.8621 75.5261 76.3953L76.1126 75.7708C82.1857 69.304 81.89 59.1163 75.4522 53.0159L65.6132 43.6926C59.1754 37.5922 49.0334 37.8892 42.9603 44.356Z" fill="#FF7E3E"/>
<path d="M31.5852 174.576H191.992V264.197C191.992 274.574 183.603 283 173.273 283H50.3041C39.9739 283 31.5852 274.574 31.5852 264.197V174.576Z" fill="#B6BBFF"/>
<path d="M5.04138 116.135L110.905 3.40723C114.87 -0.814875 121.502 -1.0091 125.705 2.97378L145.261 21.5051L25.0291 149.533L5.47288 131.001C1.26971 127.018 1.07637 120.357 5.04138 116.135Z" fill="#A0AAF6"/>
<path d="M128.673 174.576H95.7682V283H128.673V174.576Z" fill="#EF4D43"/>
<path d="M69.5559 47.4232L46.9769 71.4661L74.1488 97.2139L96.7278 73.171L69.5559 47.4232Z" fill="#EF4D43"/>
</g>
<path d="M187.291 127.33C199.552 160.898 148.161 136.99 181.581 124.674C148.161 136.99 171.964 85.3713 184.225 118.939C171.964 85.3713 223.355 109.279 189.935 121.595C223.355 109.279 199.552 160.898 187.291 127.33Z" fill="#4598FF"/>
<g clip-path="url(#clip2_180_7669)">
<path d="M184.999 23.5046C189.468 17.6242 188.369 9.2208 182.53 4.70871C178.041 10.5746 179.119 18.9784 184.933 23.5064C179.081 19.0238 170.717 20.1298 166.226 25.9912C172.069 30.5027 180.44 29.4165 184.947 23.5702C180.478 29.4496 181.577 37.8553 187.415 42.3674C191.908 36.4976 190.826 28.0873 185.002 23.5618C190.855 28.0547 199.225 26.9514 203.718 21.0861C197.876 16.5746 189.506 17.6596 184.999 23.5059L184.999 23.5046Z" fill="#FFA88A"/>
</g>
<path d="M169.991 72.33C166.977 73.5327 163.681 74.0199 160.411 73.8053C158.555 75.3988 156.372 76.7507 153.945 77.7987C150.229 79.4035 146.122 80.1721 142.385 79.9677C140.914 79.8862 139.8 78.6345 139.898 77.171C139.994 75.708 141.267 74.5866 142.739 74.6681C146.347 74.8653 150.152 73.9374 153.392 72.2173C152.168 71.7275 150.985 71.1265 149.86 70.4189C146.898 68.5526 144.13 65.4139 142.459 62.0223C140.405 57.8564 140.16 53.6767 141.771 50.2536C143.397 46.7897 146.915 44.2998 150.522 44.0568C156.029 43.6841 161.091 46.7637 164.062 52.2959C166.871 57.5242 167.106 63.641 164.849 68.312C166.409 68.0407 167.92 67.5477 169.323 66.8268C172.216 65.3396 174.684 62.6685 176.094 59.4962C177.527 56.271 177.772 52.8513 176.787 49.8675C176.328 48.48 177.096 46.9732 178.494 46.5006C179.895 46.029 181.403 46.772 181.862 48.1612C183.26 52.3896 182.945 57.1609 180.974 61.5959C179.047 65.9335 175.765 69.4656 171.733 71.5361C171.165 71.8274 170.582 72.0922 169.99 72.3283L169.991 72.33ZM149.582 49.6471C148.346 50.1406 147.197 51.1918 146.601 52.4589C145.181 55.4754 146.872 62.223 152.752 65.9275C154.537 67.0519 156.516 67.8216 158.552 68.2248C158.781 67.9643 159 67.6983 159.207 67.4257C161.591 64.2942 161.648 59.1186 159.349 54.8377C157.383 51.1761 154.197 49.1258 150.829 49.353C150.416 49.381 149.995 49.4824 149.584 49.6464L149.582 49.6471Z" fill="#97E6E6"/>
<defs>
<clipPath id="clip0_180_7669">
<rect width="191.992" height="283" fill="white"/>
</clipPath>
<clipPath id="clip1_180_7669">
<rect width="79.7887" height="80.1416" fill="white" transform="translate(79.7886 77.6372)"/>
</clipPath>
<clipPath id="clip2_180_7669">
<rect width="26.8098" height="26.7795" fill="white" transform="matrix(0.608137 -0.793832 0.791231 0.611518 166.226 25.9912)"/>
</clipPath>
</defs>
</svg>
