<svg width="36" height="36" viewBox="0 0 36 36" fill="none" xmlns="http://www.w3.org/2000/svg">
<g clip-path="url(#clip0_168_1607)">
<path d="M31.51 6.16003H4.71997V11.76H31.51V6.16003Z" fill="#5D8FFF"/>
<path d="M31.65 12.45H4.57C4.26 12.45 4 12.19 4 11.88V6.64996C4 6.05996 4.48 5.57996 5.07 5.57996H31.16C31.75 5.57996 32.23 6.05996 32.23 6.64996V11.87C32.23 12.19 31.97 12.44 31.66 12.44L31.65 12.45ZM5.15 11.3H31.09V6.72996H5.15V11.3Z" fill="#191919"/>
<path d="M31.16 32.5901H5.07C4.48 32.5901 4 32.1101 4 31.5201V11.8801C4 11.5601 4.26 11.3101 4.57 11.3101H31.65C31.97 11.3101 32.22 11.5701 32.22 11.8801V31.5201C32.22 32.1101 31.74 32.5901 31.15 32.5901H31.16ZM5.15 31.4401H31.09V12.4501H5.15V31.4401Z" fill="#191919"/>
<path d="M9.03002 8.32C8.71002 8.32 8.46002 8.06 8.46002 7.75V4.57C8.46002 4.25 8.72002 4 9.03002 4C9.34002 4 9.60002 4.26 9.60002 4.57V7.74C9.60002 8.06 9.34002 8.31 9.03002 8.31V8.32Z" fill="#191919"/>
<path d="M13.57 8.32C13.25 8.32 13 8.06 13 7.75V4.57C13 4.25 13.26 4 13.57 4C13.88 4 14.14 4.26 14.14 4.57V7.74C14.14 8.06 13.88 8.31 13.57 8.31V8.32Z" fill="#191919"/>
<path d="M18.11 8.32C17.79 8.32 17.54 8.06 17.54 7.75V4.57C17.54 4.25 17.8 4 18.11 4C18.42 4 18.68 4.26 18.68 4.57V7.74C18.68 8.06 18.42 8.31 18.11 8.31V8.32Z" fill="#191919"/>
<path d="M22.66 8.32C22.34 8.32 22.09 8.06 22.09 7.75V4.57C22.09 4.25 22.35 4 22.66 4C22.97 4 23.23 4.26 23.23 4.57V7.74C23.23 8.06 22.97 8.31 22.66 8.31V8.32Z" fill="#191919"/>
<path d="M27.2 8.32C26.88 8.32 26.63 8.06 26.63 7.75V4.57C26.63 4.25 26.89 4 27.2 4C27.51 4 27.77 4.26 27.77 4.57V7.74C27.77 8.06 27.51 8.31 27.2 8.31V8.32Z" fill="#191919"/>
<path d="M13.51 20.0101C13.51 20.5401 13.08 20.9701 12.55 20.9701H8.68998C8.15998 20.9701 7.72998 20.5401 7.72998 20.0101V16.1501C7.72998 15.6101 8.15998 15.1801 8.68998 15.1801H12.55C13.08 15.1801 13.51 15.6101 13.51 16.1501V20.0101Z" fill="#191919"/>
<path d="M13.51 27.45C13.51 27.98 13.08 28.41 12.55 28.41H8.68998C8.15998 28.41 7.72998 27.98 7.72998 27.45V23.59C7.72998 23.05 8.15998 22.62 8.68998 22.62H12.55C13.08 22.62 13.51 23.05 13.51 23.59V27.45Z" fill="#191919"/>
<path d="M16.18 15.1801H20.04C20.57 15.1801 21 15.6101 21 16.1401V20.0001C21 20.5301 20.57 20.9701 20.03 20.9701H16.17C15.64 20.9701 15.2 20.5401 15.2 20.0001V16.1401C15.2 15.6101 15.63 15.1801 16.16 15.1801H16.18Z" fill="#191919"/>
<path d="M16.18 22.62H20.04C20.57 22.62 21 23.05 21 23.58V27.44C21 27.97 20.57 28.41 20.03 28.41H16.17C15.64 28.41 15.2 27.98 15.2 27.44V23.58C15.2 23.05 15.63 22.62 16.16 22.62H16.18Z" fill="#191919"/>
<path d="M23.68 15.1801H27.54C28.07 15.1801 28.51 15.6101 28.51 16.1501V20.0101C28.51 20.5401 28.08 20.9801 27.54 20.9801H23.68C23.15 20.9801 22.71 20.5501 22.71 20.0101V16.1501C22.71 15.6201 23.14 15.1901 23.67 15.1901L23.68 15.1801Z" fill="#191919"/>
<path d="M23.68 22.62H27.54C28.07 22.62 28.51 23.05 28.51 23.59V27.45C28.51 27.98 28.08 28.42 27.54 28.42H23.68C23.15 28.42 22.71 27.99 22.71 27.45V23.59C22.71 23.06 23.14 22.63 23.67 22.63L23.68 22.62Z" fill="#191919"/>
</g>
<defs>
<clipPath id="clip0_168_1607">
<rect width="28.23" height="28.59" fill="white" transform="translate(4 4)"/>
</clipPath>
</defs>
</svg>
