<svg width="289" height="334" viewBox="0 0 289 334" fill="none" xmlns="http://www.w3.org/2000/svg">
<path d="M9.5 170.697C9.5 166.415 18.4321 163.488 19.7068 159.413C20.9456 155.463 15.1555 148.093 17.4895 144.385C19.6709 140.929 28.9441 142.77 31.9962 139.574C34.815 136.62 32.3553 127.518 35.8563 124.816C39.106 122.311 47.3738 126.907 51.1531 124.654C54.69 122.545 54.4745 113.092 58.4334 111.225C62.1768 109.456 69.3853 115.587 73.4608 114.061C77.3478 112.607 78.6944 103.244 82.8686 102.014C86.8634 100.838 93.1113 107.948 97.3305 106.996C101.406 106.081 103.964 96.9692 108.229 96.269C112.358 95.5957 117.699 103.406 121.99 102.948C126.156 102.508 129.728 93.7375 134.028 93.5131C138.221 93.2976 142.691 101.637 146.991 101.637C151.291 101.637 155.762 93.2887 159.963 93.5041C164.263 93.7285 167.836 102.49 172.001 102.939C176.292 103.397 181.633 95.5868 185.762 96.26C190.027 96.9602 192.585 106.072 196.661 106.987C200.889 107.939 207.128 100.829 211.122 102.005C215.288 103.235 216.643 112.598 220.53 114.052C224.615 115.587 231.823 109.456 235.567 111.216C239.525 113.083 239.31 122.536 242.847 124.645C246.626 126.898 254.894 122.302 258.144 124.807C261.645 127.509 259.185 136.611 262.004 139.565C265.056 142.761 274.329 140.92 276.51 144.376C278.853 148.084 273.054 155.454 274.293 159.404C275.568 163.479 284.5 166.406 284.5 170.688C284.5 174.97 275.568 177.896 274.293 181.972C273.054 185.922 278.845 193.292 276.51 196.999C274.329 200.456 265.056 198.615 262.004 201.811C259.185 204.764 261.645 213.867 258.144 216.569C254.894 219.074 246.626 214.478 242.847 216.731C239.31 218.84 239.525 228.293 235.567 230.16C231.823 231.929 224.615 225.797 220.539 227.324C216.652 228.778 215.306 238.141 211.131 239.371C207.137 240.547 200.889 233.437 196.669 234.388C192.594 235.304 190.036 244.416 185.771 245.116C181.642 245.789 176.301 237.979 172.01 238.437C167.844 238.877 164.272 247.647 159.972 247.872C155.779 248.087 151.309 239.748 147.009 239.748C142.709 239.748 138.238 248.087 134.046 247.872C129.746 247.647 126.173 238.886 122.008 238.437C117.717 237.979 112.376 245.789 108.246 245.116C103.982 244.416 101.424 235.304 97.3485 234.388C93.1203 233.437 86.8813 240.547 82.8866 239.371C78.7213 238.141 77.3658 228.778 73.4787 227.324C69.3942 225.788 62.1857 231.92 58.4424 230.16C54.4835 228.293 54.699 218.84 51.162 216.731C47.3827 214.478 39.115 219.074 35.8653 216.569C32.3643 213.867 34.824 204.764 32.0052 201.811C28.9531 198.615 19.6799 200.456 17.4985 196.999C15.1555 193.292 20.9546 185.922 19.7158 181.972C18.441 177.896 9.50898 174.97 9.50898 170.688L9.5 170.697Z" fill="#FFA9FF"/>
<path d="M147 235.125C214.714 235.125 269.608 207.083 269.608 172.492C269.608 137.901 214.714 109.86 147 109.86C79.2862 109.86 24.3931 137.901 24.3931 172.492C24.3931 207.083 79.2862 235.125 147 235.125Z" fill="#C39CFF"/>
<path d="M147 119.645C162.144 119.645 176.83 121.036 190.655 123.792C203.968 126.441 215.907 130.229 226.141 135.05C236.267 139.816 244.193 145.337 249.696 151.459C255.217 157.609 258.018 164.081 258.018 170.697C258.018 177.313 255.217 183.794 249.696 189.935C244.193 196.057 236.267 201.578 226.141 206.344C215.907 211.165 203.968 214.944 190.655 217.602C176.83 220.349 162.144 221.749 147 221.749C131.856 221.749 117.169 220.358 103.345 217.602C90.0322 214.953 78.0928 211.165 67.8591 206.344C57.7331 201.578 49.8064 196.057 44.3036 189.935C38.7827 183.785 35.9819 177.313 35.9819 170.697C35.9819 164.081 38.7827 157.6 44.3036 151.459C49.8064 145.337 57.7331 139.816 67.8591 135.05C78.0928 130.229 90.0322 126.45 103.345 123.792C117.169 121.045 131.856 119.645 147 119.645ZM147 117.392C84.4395 117.392 33.7197 141.262 33.7197 170.697C33.7197 200.132 84.4395 224.002 147 224.002C209.56 224.002 260.28 200.132 260.28 170.697C260.28 141.262 209.56 117.392 147 117.392Z" fill="#FFCFFF"/>
<path d="M70.9292 159.179C70.2828 160.409 68.8376 163.075 66.6023 167.196C64.367 171.316 62.4729 174.889 60.9109 177.878C60.9109 180.06 60.9109 181.891 60.9199 183.354C60.9199 184.826 60.9289 186.451 60.9289 188.247C56.0723 188.839 53.6396 189.135 48.783 189.521C48.783 188.094 48.783 186.676 48.792 185.257C48.792 183.839 48.801 181.846 48.801 179.288C47.3108 176.693 45.5154 173.641 43.4238 170.086C41.3322 166.531 39.7792 163.847 38.7827 162.088C43.5585 160.75 45.9463 159.924 50.7221 158.156C51.53 159.781 52.293 161.298 53.0022 162.716C53.7114 164.135 54.4295 165.544 55.1657 166.944C55.1836 166.944 55.1926 166.944 55.2105 166.944C56.2878 164.539 57.1585 162.582 57.8318 161.091C58.5051 159.592 59.0706 158.3 59.5464 157.213C64.0977 158.003 66.3689 158.362 70.9112 159.179H70.9292Z" fill="#876613"/>
<path d="M98.1295 174.656C98.1295 176.442 97.7794 178.085 97.0882 179.593C96.3969 181.101 95.3107 182.412 93.8385 183.588C92.6266 184.548 91.2172 185.249 89.5924 185.742C87.9676 186.227 86.2709 186.514 84.5025 186.595C82.734 186.676 81.0374 186.532 79.4036 186.155C77.7787 185.787 76.3514 185.168 75.1664 184.288C73.784 183.256 72.7068 181.963 71.9617 180.419C71.2076 178.884 70.8306 177.196 70.8306 175.365C70.8306 173.534 71.1537 171.801 71.8001 170.266C72.4464 168.731 73.4339 167.259 74.7625 165.912C75.9923 164.664 77.4376 163.686 79.0624 162.995C80.6873 162.304 82.4827 161.9 84.4307 161.819C86.3158 161.738 88.0663 161.953 89.6642 162.465C91.2621 162.977 92.7164 163.866 94.0091 165.077C95.3646 166.352 96.388 167.824 97.0882 169.431C97.7794 171.038 98.1295 172.789 98.1295 174.674V174.656ZM87.1596 174.153C87.1596 173.534 87.0878 172.878 86.9352 172.205C86.7916 171.523 86.5133 170.975 86.1183 170.544C85.9298 170.338 85.6874 170.185 85.4002 170.078C85.1129 169.979 84.7987 169.934 84.4576 169.943C84.0895 169.961 83.7753 170.024 83.533 170.149C83.2816 170.266 83.0123 170.491 82.734 170.832C82.3929 171.245 82.1505 171.792 82.0159 172.465C81.8722 173.139 81.8094 173.758 81.8094 174.324C81.8094 175.024 81.8722 175.661 82.0069 176.254C82.1415 176.846 82.4019 177.358 82.7789 177.789C83.0033 178.049 83.2636 178.229 83.5599 178.327C83.8651 178.426 84.1793 178.471 84.5025 178.453C84.7987 178.444 85.1039 178.363 85.4361 178.211C85.7592 178.067 86.0106 177.879 86.1901 177.663C86.4954 177.286 86.7377 176.774 86.9083 176.11C87.0789 175.446 87.1596 174.799 87.1596 174.162V174.153Z" fill="#876613"/>
<path d="M127.286 191.909C122.933 191.2 120.76 190.715 116.406 189.782C116.406 189.127 116.415 188.803 116.424 188.148C116.406 188.13 116.397 188.112 116.379 188.094C115.302 188.364 113.938 188.588 112.286 188.785C110.634 188.974 109.153 188.938 107.842 188.678C105.544 188.22 103.776 187.214 102.537 185.626C101.298 184.037 100.679 182.107 100.679 179.782C100.679 178.022 100.679 176.307 100.697 174.638C100.715 172.968 100.715 171.729 100.715 170.948C100.715 169.494 100.715 167.977 100.697 166.406C100.679 164.835 100.679 163.776 100.679 163.228C105.131 163.892 107.358 164.377 111.801 165.32C111.801 165.93 111.801 166.927 111.783 168.327C111.765 169.727 111.765 171.002 111.765 172.151C111.765 172.923 111.765 173.92 111.783 175.131C111.801 176.343 111.801 177.277 111.801 177.932C111.801 178.677 111.882 179.342 112.044 179.943C112.205 180.536 112.645 180.913 113.345 181.065C113.803 181.164 114.324 181.182 114.907 181.119C115.491 181.056 116.119 180.975 116.182 180.886C116.837 179.961 116.2 176.289 116.2 175.096C116.2 173.596 116.2 171.927 116.182 170.095C116.164 168.264 116.164 166.989 116.164 166.262C120.617 167.223 122.843 167.717 127.286 168.444C127.286 169.018 127.286 170.517 127.268 172.932C127.25 175.347 127.25 177.636 127.25 179.808C127.25 181.981 127.25 183.83 127.268 185.554C127.286 187.277 127.286 189.396 127.286 191.909Z" fill="#876613"/>
<path d="M178.823 163.39C176.803 169.126 175.17 174.027 173.931 178.013C172.692 181.99 171.821 184.916 171.318 186.766C167.234 187.843 165.187 188.462 161.103 189.566C160.833 188.696 160.51 187.636 160.115 186.389C159.729 185.141 159.119 183.256 158.311 180.751C158.221 180.778 158.176 180.787 158.086 180.805C157.35 183.417 156.767 185.491 156.354 187.017C155.932 188.543 155.564 189.89 155.232 191.057C151.147 192.008 149.1 192.43 145.016 192.825C144.531 191.281 143.687 188.75 142.484 185.177C141.282 181.604 139.648 177.053 137.583 171.415C142.143 170.607 144.414 169.943 148.975 168.219C150.052 172.394 150.591 174.467 151.677 178.606C151.767 178.588 151.811 178.579 151.901 178.561C152.943 174.342 153.463 172.223 154.514 167.977C157.44 167.313 158.903 166.918 161.839 166.119C162.916 169.835 163.455 171.693 164.541 175.401C164.631 175.374 164.675 175.365 164.765 175.338C165.807 170.697 166.327 168.381 167.378 163.74C171.965 163.461 174.254 163.309 178.832 163.381L178.823 163.39Z" fill="#876613"/>
<path d="M191.409 157.626C186.956 157.582 184.73 157.842 180.286 158.65V151.37C184.739 150.562 186.965 150.301 191.409 150.346V157.626ZM191.409 183.687C186.956 183.642 184.73 183.902 180.286 184.71C180.286 183.345 180.286 181.73 180.304 179.862C180.322 177.995 180.322 175.85 180.322 173.426C180.322 171.442 180.322 169.467 180.304 167.501C180.286 165.544 180.286 163.453 180.286 161.235C184.739 160.427 186.965 160.167 191.409 160.212C191.409 162.33 191.409 164.117 191.382 165.571C191.355 167.025 191.364 169.279 191.364 172.358C191.364 175.706 191.364 178.067 191.382 179.423C191.4 180.778 191.409 182.205 191.409 183.687Z" fill="#876613"/>
<path d="M222.173 187.933C217.72 187.161 215.494 186.694 211.05 185.904C211.05 185.356 211.05 184.521 211.068 183.399C211.086 182.268 211.086 180.832 211.086 179.072C211.086 178.363 211.086 177.412 211.077 176.227C211.077 175.042 211.05 174.09 211.041 173.381C211.032 172.465 210.934 171.738 210.709 171.227C210.485 170.715 210.081 170.41 209.488 170.311C208.959 170.221 208.42 170.212 207.873 170.302C207.325 170.383 206.715 170.455 206.652 170.526C205.907 171.469 206.634 175.598 206.634 176.343C206.634 177.843 206.634 179.611 206.652 181.649C206.67 183.678 206.679 184.863 206.679 185.177C202.226 184.468 200 184.144 195.556 183.866C195.556 183.184 195.556 181.945 195.574 180.15C195.592 178.354 195.592 175.805 195.592 172.501C195.592 170.042 195.592 167.878 195.574 166.011C195.556 164.135 195.556 162.268 195.556 160.4C199.91 160.679 202.082 160.984 206.436 161.675C206.436 162.286 206.427 162.591 206.418 163.192C206.436 163.21 206.445 163.228 206.463 163.246C206.993 163.085 208.16 162.851 209.955 162.555C211.751 162.259 213.438 162.268 215 162.555C217.244 162.968 218.995 164 220.27 165.625C221.535 167.259 222.173 169.207 222.173 171.478C222.173 173.237 222.173 174.611 222.155 175.598C222.137 176.586 222.128 177.475 222.128 178.265C222.128 179.719 222.128 181.469 222.155 183.507C222.173 185.545 222.173 187.026 222.173 187.933Z" fill="#876613"/>
<path d="M241.356 159.494C241.267 163.713 240.997 167.447 240.549 170.697C240.1 173.956 239.66 176.559 239.229 178.516C235.629 178.408 233.825 178.229 230.225 177.771C229.785 175.589 229.345 172.914 228.923 169.727C228.493 166.55 228.214 162.779 228.08 158.417C233.385 159.18 236.042 159.476 241.348 159.476L241.356 159.494ZM240.584 189.944C235.89 189.89 233.538 189.638 228.843 188.992V179.827C233.538 180.473 235.89 180.724 240.584 180.778V189.944Z" fill="#876613"/>
<path d="M76.9531 154.224C76.3068 155.454 74.8615 158.12 72.6262 162.241C70.391 166.361 68.4968 169.934 66.9348 172.923C66.9348 175.105 66.9348 176.936 66.9438 178.399C66.9438 179.871 66.9528 181.496 66.9528 183.292C62.0963 183.884 59.6635 184.18 54.807 184.566C54.807 183.139 54.807 181.721 54.8159 180.302C54.8159 178.884 54.8249 176.891 54.8249 174.333C53.3347 171.738 51.5394 168.686 49.4477 165.131C47.3561 161.576 45.8031 158.892 44.8066 157.133C49.5824 155.795 51.9702 154.969 56.746 153.201C57.5539 154.826 58.317 156.343 59.0261 157.761C59.7353 159.18 60.4535 160.589 61.1896 161.989C61.2075 161.989 61.2165 161.989 61.2345 161.989C62.3117 159.583 63.1825 157.627 63.8557 156.136C64.529 154.637 65.0946 153.345 65.5703 152.258C70.1216 153.048 72.3928 153.407 76.9352 154.224H76.9531Z" fill="white"/>
<path d="M104.162 169.7C104.162 171.487 103.812 173.13 103.121 174.638C102.43 176.146 101.343 177.457 99.8712 178.633C98.6593 179.593 97.2499 180.293 95.6251 180.787C94.0003 181.272 92.3036 181.559 90.5352 181.64C88.7667 181.721 87.0701 181.577 85.4363 181.2C83.8114 180.832 82.3841 180.213 81.1992 179.333C79.8167 178.3 78.7395 177.008 77.9944 175.464C77.2403 173.929 76.8633 172.241 76.8633 170.41C76.8633 168.578 77.1865 166.846 77.8328 165.311C78.4791 163.776 79.4666 162.303 80.7952 160.957C82.025 159.709 83.4703 158.731 85.0951 158.039C86.72 157.348 88.5154 156.944 90.4634 156.863C92.3485 156.783 94.099 156.998 95.6969 157.51C97.2948 158.021 98.7491 158.91 100.042 160.122C101.397 161.397 102.421 162.869 103.121 164.476C103.812 166.083 104.162 167.833 104.162 169.718V169.7ZM93.1924 169.198C93.1924 168.578 93.1205 167.923 92.9679 167.25C92.8243 166.568 92.546 166.02 92.151 165.589C91.9625 165.383 91.7201 165.23 91.4329 165.122C91.1456 165.023 90.8314 164.979 90.4903 164.988C90.1222 165.006 89.8081 165.068 89.5657 165.194C89.3143 165.311 89.045 165.535 88.7667 165.876C88.4256 166.289 88.1832 166.837 88.0486 167.51C87.9049 168.183 87.8421 168.803 87.8421 169.368C87.8421 170.069 87.9049 170.706 88.0396 171.298C88.1742 171.891 88.4346 172.403 88.8116 172.833C89.036 173.094 89.2964 173.273 89.5926 173.372C89.8978 173.471 90.212 173.516 90.5352 173.498C90.8314 173.489 91.1366 173.408 91.4688 173.255C91.792 173.112 92.0433 172.923 92.2228 172.708C92.5281 172.331 92.7704 171.819 92.941 171.155C93.1116 170.49 93.1924 169.844 93.1924 169.207V169.198Z" fill="white"/>
<path d="M133.31 186.954C128.957 186.245 126.784 185.76 122.43 184.827C122.43 184.171 122.439 183.848 122.448 183.193C122.43 183.175 122.421 183.157 122.403 183.139C121.326 183.408 119.962 183.633 118.31 183.83C116.658 184.019 115.177 183.983 113.866 183.722C111.568 183.265 109.8 182.259 108.561 180.67C107.322 179.081 106.703 177.151 106.703 174.826C106.703 173.067 106.703 171.352 106.721 169.682C106.739 168.013 106.739 166.774 106.739 165.993C106.739 164.539 106.739 163.022 106.721 161.451C106.703 159.88 106.703 158.82 106.703 158.273C111.155 158.937 113.381 159.422 117.825 160.364C117.825 160.975 117.825 161.971 117.807 163.372C117.789 164.772 117.789 166.047 117.789 167.196C117.789 167.968 117.789 168.964 117.807 170.176C117.825 171.388 117.825 172.322 117.825 172.977C117.825 173.722 117.906 174.386 118.067 174.988C118.229 175.58 118.669 175.957 119.369 176.11C119.827 176.209 120.348 176.227 120.931 176.164C121.515 176.101 122.143 176.02 122.206 175.93C122.861 175.006 122.224 171.334 122.224 170.14C122.224 168.641 122.224 166.971 122.206 165.14C122.188 163.309 122.188 162.034 122.188 161.307C126.64 162.267 128.867 162.761 133.31 163.488C133.31 164.063 133.31 165.562 133.292 167.977C133.274 170.392 133.274 172.681 133.274 174.853C133.274 177.026 133.274 178.875 133.292 180.598C133.31 182.322 133.31 184.441 133.31 186.954Z" fill="white"/>
<path d="M184.856 158.434C182.837 164.171 181.203 169.072 179.964 173.058C178.725 177.035 177.854 179.961 177.352 181.81C173.267 182.888 171.22 183.507 167.136 184.611C166.867 183.74 166.543 182.681 166.148 181.433C165.762 180.186 165.152 178.3 164.344 175.796C164.254 175.823 164.209 175.832 164.12 175.85C163.383 178.462 162.8 180.536 162.387 182.062C161.965 183.588 161.597 184.934 161.265 186.101C157.18 187.053 155.134 187.475 151.049 187.87C150.564 186.326 149.721 183.794 148.518 180.221C147.315 176.649 145.681 172.097 143.616 166.46C148.177 165.652 150.448 164.988 155.008 163.264C156.085 167.438 156.624 169.512 157.71 173.65C157.8 173.632 157.845 173.623 157.934 173.605C158.976 169.386 159.496 167.268 160.547 163.022C163.473 162.357 164.936 161.962 167.872 161.163C168.949 164.88 169.488 166.738 170.574 170.446C170.664 170.419 170.709 170.41 170.798 170.383C171.84 165.742 172.36 163.426 173.411 158.784C177.998 158.506 180.287 158.354 184.865 158.425L184.856 158.434Z" fill="white"/>
<path d="M197.442 152.671C192.989 152.626 190.763 152.887 186.319 153.695V146.414C190.772 145.606 192.998 145.346 197.442 145.391V152.671ZM197.442 178.731C192.989 178.686 190.763 178.947 186.319 179.755C186.319 178.39 186.319 176.774 186.337 174.907C186.355 173.04 186.355 170.894 186.355 168.471C186.355 166.487 186.355 164.512 186.337 162.546C186.319 160.589 186.319 158.497 186.319 156.28C190.772 155.472 192.998 155.212 197.442 155.257C197.442 157.375 197.442 159.161 197.415 160.616C197.397 162.061 197.397 164.323 197.397 167.402C197.397 170.751 197.397 173.112 197.415 174.467C197.433 175.823 197.442 177.25 197.442 178.731Z" fill="white"/>
<path d="M228.206 182.977C223.753 182.205 221.527 181.739 217.083 180.949C217.083 180.401 217.083 179.566 217.101 178.444C217.119 177.322 217.119 175.877 217.119 174.117C217.119 173.408 217.119 172.456 217.11 171.271C217.11 170.086 217.083 169.135 217.074 168.426C217.065 167.51 216.966 166.783 216.742 166.271C216.518 165.76 216.114 165.454 215.521 165.356C214.991 165.266 214.453 165.257 213.905 165.347C213.358 165.427 212.747 165.499 212.684 165.571C211.939 166.514 212.666 170.643 212.666 171.388C212.666 172.887 212.666 174.656 212.684 176.694C212.702 178.722 212.711 179.907 212.711 180.221C208.259 179.512 206.032 179.189 201.589 178.911C201.589 178.229 201.589 176.99 201.607 175.194C201.625 173.399 201.625 170.85 201.625 167.546C201.625 165.086 201.625 162.923 201.607 161.056C201.589 159.179 201.589 157.312 201.589 155.445C205.943 155.723 208.115 156.029 212.469 156.72C212.469 157.33 212.46 157.635 212.451 158.237C212.469 158.255 212.478 158.273 212.496 158.291C213.026 158.129 214.193 157.896 215.988 157.6C217.783 157.303 219.471 157.312 221.033 157.6C223.277 158.012 225.028 159.045 226.302 160.67C227.568 162.303 228.206 164.251 228.206 166.523C228.206 168.282 228.206 169.656 228.188 170.643C228.17 171.631 228.161 172.519 228.161 173.309C228.161 174.763 228.161 176.514 228.188 178.552C228.206 180.59 228.206 182.071 228.206 182.977Z" fill="white"/>
<path d="M247.381 154.538C247.291 158.758 247.022 162.492 246.573 165.742C246.124 169 245.684 171.604 245.253 173.561C241.654 173.453 239.849 173.273 236.249 172.815C235.81 170.634 235.37 167.959 234.948 164.772C234.517 161.594 234.239 157.824 234.104 153.461C239.409 154.224 242.067 154.52 247.372 154.52L247.381 154.538ZM246.609 184.988C241.914 184.934 239.562 184.683 234.867 184.037V174.871C239.562 175.518 241.914 175.769 246.609 175.823V184.988Z" fill="white"/>
<path d="M210.674 186.425L198.51 189.037L195.897 201.192L193.285 189.037L181.13 186.425L193.285 183.812L195.897 171.648L198.51 183.812L210.674 186.425Z" fill="#B4FFDB"/>
<path d="M105.652 144.053L92.4921 146.881L89.6644 160.041L86.8367 146.881L73.6675 144.053L86.8367 141.226L89.6644 128.056L92.4921 141.226L105.652 144.053Z" fill="#B4FFDB"/>
<path d="M170.197 199.746L159.227 202.107L156.875 213.077L154.514 202.107L143.544 199.746L154.514 197.394L156.875 186.425L159.227 197.394L170.197 199.746Z" fill="#B4FFDB"/>
<g clip-path="url(#clip0_168_7447)">
<path d="M275.121 218.781C281.526 210.983 277.196 207.275 273.29 207.773C270.599 208.114 268.746 209.611 266.826 211.26C258.626 218.295 248.913 227.562 240.092 235.62C242.499 223.369 245.364 209.293 246.879 200.051C247.286 197.558 247.602 195.196 246.496 192.716C244.89 189.121 239.473 187.358 236.141 196.876C234.421 201.788 232.435 208.718 226.743 228.308L226.789 228.408C226.748 228.391 226.702 228.37 226.66 228.353L227.997 223.969C225.521 217.974 218.76 217.612 215.824 219.278C214.542 220.005 213.498 221.065 212.681 222.293L212.695 222.198C210.48 219.072 205.925 218.056 202.989 219.723C200.609 221.073 199.049 223.553 198.242 226.165C197.659 228.051 197.226 231.318 197.116 234.899L197.036 234.671C188.723 249.466 189.047 261.365 191.453 268.589C195.918 282.027 211.246 290.011 223.9 285.113C237.749 279.754 249.397 263.832 249.29 256.538C249.256 254.357 248.175 251.874 246.855 249.714L247.016 249.816C247.359 249.46 270.308 224.625 275.115 218.772L275.121 218.781Z" fill="#B4EDFC"/>
<path d="M203.122 284.239C197.091 280.85 192.492 275.372 190.358 268.952C188.427 263.144 186.6 250.892 196.032 234.107C196.345 233.551 197.05 233.358 197.605 233.67C198.16 233.982 198.36 234.689 198.05 235.241C189.05 251.256 190.743 262.787 192.554 268.236C194.695 274.683 199.561 280.094 205.898 283.083C211.727 285.832 217.971 286.173 223.479 284.042C229.53 281.7 235.893 276.881 240.938 270.818C245.358 265.508 248.184 259.908 248.131 256.555C248.089 253.776 245.972 250.139 244.008 247.662C230.822 231.04 226.619 228.364 223.48 229.236C220.647 230.023 220.762 233.622 220.864 234.709C221.446 240.874 229.648 252.62 232.15 256.073C232.456 256.491 232.443 257.055 232.124 257.459C231.805 257.863 231.258 258.008 230.777 257.812C226.684 256.147 222.186 256.175 218.105 257.884C214.023 259.594 210.868 262.785 209.216 266.86C208.976 267.451 208.3 267.735 207.71 267.495C207.114 267.257 206.83 266.577 207.068 265.99C208.948 261.345 212.547 257.712 217.195 255.761C220.766 254.262 224.615 253.897 228.326 254.667C224.589 249.239 219.068 240.401 218.554 234.914C218.257 231.751 219.23 228.015 222.846 227.01C225.379 226.306 227.83 227.14 231.048 229.789C234.477 232.614 239.035 237.685 245.815 246.236C247.185 247.961 250.375 252.418 250.437 256.531C250.495 260.457 247.535 266.502 242.715 272.297C239.605 276.033 233.082 282.804 224.316 286.193C218.208 288.554 211.315 288.191 204.905 285.167C204.291 284.879 203.696 284.568 203.107 284.236L203.122 284.239Z" fill="#8B8FF6"/>
<path d="M246.462 250.831C246.379 250.785 246.297 250.727 246.224 250.652C245.761 250.208 245.752 249.477 246.192 249.021C246.404 248.797 269.435 223.889 274.23 218.045C276.857 214.844 277.825 212.037 276.884 210.347C276.212 209.14 274.674 208.757 273.448 208.914C271.151 209.207 269.573 210.431 267.594 212.132C262.054 216.888 257.719 220.942 253.132 225.238C249.349 228.779 245.44 232.444 240.73 236.591C240.251 237.014 239.521 236.963 239.095 236.484C238.669 236.004 238.716 235.276 239.195 234.853C243.875 230.729 247.777 227.078 251.544 223.545C256.151 219.232 260.499 215.156 266.078 210.371C267.819 208.879 269.985 207.019 273.147 206.617C275.59 206.309 277.851 207.328 278.905 209.224C279.743 210.73 280.489 214.066 276.024 219.506C271.092 225.512 248.033 250.439 247.864 250.618C247.492 251.004 246.913 251.073 246.463 250.82L246.462 250.831Z" fill="#8B8FF6"/>
<path d="M239.39 236.736C238.971 236.5 238.729 236.021 238.813 235.525C239.906 229.345 241.003 224.1 242.06 219.028C243.345 212.876 244.56 207.063 245.734 199.86C246.159 197.284 246.378 195.298 245.439 193.186C244.936 192.057 243.809 190.943 242.428 190.997C240.495 191.071 238.604 193.354 237.233 197.267C235.675 201.726 233.921 207.752 229.244 223.846L227.85 228.638C227.674 229.248 227.028 229.6 226.416 229.422C225.803 229.244 225.448 228.598 225.624 227.988L227.018 223.196C231.708 207.057 233.462 201.021 235.043 196.499C237.368 189.857 240.601 188.757 242.327 188.692C244.495 188.607 246.545 190.011 247.548 192.255C248.849 195.165 248.387 197.982 248.018 200.245C246.832 207.499 245.611 213.332 244.323 219.51C243.269 224.567 242.175 229.797 241.09 235.941C240.978 236.57 240.376 236.986 239.749 236.874C239.618 236.852 239.495 236.806 239.386 236.744L239.39 236.736Z" fill="#8B8FF6"/>
<path d="M200.785 252.412C200.313 252.147 199.869 251.812 199.472 251.405C196.892 248.806 196.151 243.1 195.984 238.775C195.799 233.97 196.274 228.645 197.149 225.82C198.138 222.607 200.017 220.083 202.428 218.716C205.998 216.69 211.138 217.983 213.653 221.535C214.021 222.057 213.898 222.777 213.377 223.142C212.856 223.506 212.134 223.381 211.766 222.859C209.97 220.329 206.071 219.31 203.577 220.722C201.678 221.8 200.18 223.852 199.363 226.503C197.738 231.766 197.526 246.155 201.12 249.781C201.824 250.491 202.684 250.843 203.591 250.793C204.663 250.737 205.692 250.143 206.494 249.124C207.089 248.372 208.508 246.196 208.859 242.287C208.918 241.651 209.48 241.183 210.118 241.244C210.756 241.306 211.227 241.868 211.168 242.504C210.88 245.687 209.842 248.627 208.321 250.557C207.102 252.102 205.474 253.006 203.731 253.101C202.7 253.156 201.691 252.916 200.792 252.41L200.785 252.412Z" fill="#8B8FF6"/>
<path d="M213.438 251.78C212.944 251.502 212.481 251.15 212.06 250.725C210.276 248.928 209.096 245.588 208.727 241.326C208.262 235.936 208.79 229.228 209.975 225.381C210.964 222.169 212.84 219.649 215.254 218.278C217.304 217.114 220.467 216.947 223.113 217.862C225.039 218.526 227.634 220.054 229.072 223.538C229.316 224.127 229.034 224.803 228.445 225.044C227.855 225.284 227.176 225 226.932 224.411C225.827 221.726 223.835 220.555 222.362 220.047C220 219.229 217.619 219.601 216.404 220.291C214.506 221.368 213.008 223.42 212.19 226.072C211.262 229.084 210.539 235.391 211.032 241.141C211.344 244.758 212.342 247.738 213.699 249.107C215.03 250.45 217.167 250.615 218.469 249.483C220.027 248.123 220.919 245.81 221.189 242.405C221.24 241.771 221.798 241.3 222.436 241.35C223.072 241.405 223.55 241.965 223.499 242.599C223.179 246.634 222.031 249.455 220 251.229C218.185 252.812 215.545 252.969 213.436 251.784L213.438 251.78Z" fill="#8B8FF6"/>
</g>
<path d="M50.2803 77.1578L22.5566 65.5649L18.7478 35.5001L50.2803 77.1578Z" fill="#87FF85"/>
<path d="M89.8934 64.5995C90.5937 67.3855 90.6342 70.3373 90.0631 73.1854C91.2413 74.9992 92.1695 77.0729 92.803 79.325C93.773 82.7747 93.9652 86.4705 93.3481 89.7309C93.1044 91.0141 91.8777 91.8487 90.6073 91.5945C89.3374 91.3418 88.5043 90.0946 88.748 88.8114C89.3436 85.6639 88.9768 82.2141 87.8499 79.1704C87.2775 80.1892 86.6125 81.1595 85.8609 82.0669C83.8793 84.4549 80.8061 86.5258 77.6397 87.6051C73.7504 88.9313 70.0611 88.666 67.2517 86.8581C64.4086 85.0311 62.6399 81.655 62.8498 78.4578C63.1687 73.5762 66.459 69.4826 71.6523 67.5077C76.5606 65.6403 81.9454 66.1361 85.7718 68.6561C85.7171 67.254 85.4624 65.8696 84.9952 64.5549C84.0318 61.8416 81.9814 59.3673 79.3683 57.7643C76.7115 56.1348 73.7451 55.5264 71.0164 56.0493C69.7474 56.2933 68.5177 55.4456 68.2677 54.1627C68.0187 52.8779 68.8462 51.6386 70.1167 51.3942C73.9838 50.652 78.1257 51.4764 81.7791 53.7173C85.3524 55.9083 88.0613 59.198 89.4022 62.9781C89.5908 63.5107 89.7544 64.0528 89.8919 64.5999L89.8934 64.5995ZM67.6358 79.9252C67.9232 81.0684 68.7092 82.1987 69.7491 82.8677C72.2248 84.4612 78.3326 83.7505 82.2662 79.0097C83.46 77.5708 84.366 75.9207 84.9577 74.1786C84.7564 73.9473 84.5491 73.7241 84.3346 73.5108C81.8712 71.0572 77.345 70.4124 73.3262 71.9405C69.889 73.2476 67.7199 75.8114 67.5243 78.7965C67.5005 79.1626 67.5399 79.5437 67.6355 79.9237L67.6358 79.9252Z" fill="#A745A9"/>
<circle cx="49" cy="31" r="4.5" fill="#97E7E7"/>
<path d="M140.197 288.261C138.176 286.569 136.556 284.398 135.446 281.975C133.594 281.262 131.788 280.222 130.104 278.89C127.526 276.85 125.393 274.208 124.095 271.454C123.585 270.37 124.046 269.089 125.127 268.594C126.206 268.098 127.497 268.575 128.007 269.66C129.26 272.318 131.39 274.683 133.867 276.337C133.743 275.272 133.715 274.193 133.784 273.114C133.97 270.273 135.137 267.08 136.908 264.573C139.083 261.493 141.966 259.703 145.026 259.533C148.122 259.359 151.254 260.914 152.82 263.402C155.213 267.199 154.973 272.012 152.18 276.276C149.54 280.307 145.273 282.839 141.073 283.028C141.869 284.04 142.804 284.931 143.859 285.656C146.036 287.153 148.892 287.886 151.696 287.669C154.547 287.449 157.078 286.303 158.823 284.445C159.635 283.58 161.004 283.548 161.881 284.366C162.758 285.186 162.811 286.552 161.999 287.418C159.526 290.052 156.005 291.671 152.085 291.974C148.251 292.271 144.467 291.286 141.435 289.201C141.008 288.907 140.594 288.592 140.197 288.26L140.197 288.261ZM148.475 264.889C147.646 264.195 146.453 263.779 145.32 263.842C142.623 263.992 138.469 267.809 138.101 273.449C137.989 275.161 138.205 276.875 138.704 278.487C138.978 278.551 139.252 278.605 139.526 278.648C142.677 279.144 146.387 277.185 148.549 273.885C150.398 271.063 150.628 267.99 149.166 265.668C148.986 265.383 148.752 265.121 148.476 264.89L148.475 264.889Z" fill="#F43160"/>
<g clip-path="url(#clip1_168_7447)">
<path d="M236.906 56.8464C267.334 37.1279 252.872 22.6662 233.154 53.0941C240.726 17.6346 220.274 17.6346 227.846 53.0941C208.128 22.6662 193.666 37.1279 224.094 56.8464C188.635 49.2739 188.635 69.7261 224.094 62.1536C193.666 81.8721 208.128 96.3338 227.846 65.9059C220.274 101.365 240.726 101.365 233.154 65.9059C252.872 96.3338 267.334 81.8721 236.906 62.1536C272.365 69.7261 272.365 49.2739 236.906 56.8464Z" fill="#FFC20B"/>
</g>
<path d="M87.9346 272.505C89.1915 283.088 80.3836 284.417 78.4626 273.935C67.8794 275.192 66.5505 266.384 77.0339 264.463C75.776 253.879 84.5838 252.55 86.505 263.033C97.0881 261.777 98.4171 270.584 87.9341 272.505L87.9346 272.505Z" fill="#97E6E6"/>
<path d="M125.082 49.9116C124.31 53.478 114.137 50.833 111.294 52.6654C108.452 54.4977 106.655 64.8534 103.088 64.0819C99.522 63.3104 102.167 53.1371 100.335 50.2945C98.5022 47.452 88.1466 45.655 88.9181 42.0886C89.6896 38.5222 99.8629 41.1672 102.705 39.3349C105.549 37.5038 107.345 27.1469 110.911 27.9184C114.478 28.6898 111.833 38.8632 113.665 41.7057C115.496 44.548 125.853 46.3453 125.082 49.9116Z" fill="#4598FF"/>
<defs>
<clipPath id="clip0_168_7447">
<rect width="66.3654" height="103.235" fill="white" transform="translate(223.905 177.5) rotate(29.3333)"/>
</clipPath>
<clipPath id="clip1_168_7447">
<rect width="66" height="66" fill="white" transform="translate(197.5 26.5)"/>
</clipPath>
</defs>
</svg>
